<svg id="layer1" xmlns="http://www.w3.org/2000/svg" viewBox="0 0 496.88 113.71"><defs><style>.cls-1{fill:#89ba17;}.cls-2{fill:#878888;}</style></defs><title>iconLogo</title><g id="logoWhite"><path id="path3746" class="cls-1" d="M7,265.67v-3.29a31.48,31.48,0,0,1,2.63-10.12,22.82,22.82,0,0,0,.88-2.2,6.29,6.29,0,0,1,.66-1.31,16.74,16.74,0,0,1,2.64-4.18A29.56,29.56,0,0,0,18,238.85c.66-.88,1.32-2,2-2.85a3.1,3.1,0,0,1,1.32-1.54c.88,0,2-.88,2.85-1.54,3.74-3.52,10.12-9,15.61-13.19a15.63,15.63,0,0,0,2.86-2.64c.66-.88,1.32-2,2-2.86a14.45,14.45,0,0,1,2.64-3.74,4.48,4.48,0,0,1,3.3-1.32,4.83,4.83,0,0,1,2.85.88,11.43,11.43,0,0,1,4.18,3.74,11.57,11.57,0,0,1-.22,7.7,30.07,30.07,0,0,1-3.52,7.69,17.75,17.75,0,0,1-3.29,3.74c-1.54,1.54-4.18,3.73-4.18,4.17s2,0,4.4,0H63.29c.88,0,5.71.22,9,.22h6.81l5.72.22h4.84a1,1,0,0,0,.22-.66,18,18,0,0,1,3.29-3.73,12.52,12.52,0,0,1,3.74-2.64,14.54,14.54,0,0,1,5.5-1.54h4.83a17.06,17.06,0,0,1,5.06,1.54,16.37,16.37,0,0,1,7.7,7.69,16,16,0,0,1,.65,14.07,17.46,17.46,0,0,1-8.35,9,15.43,15.43,0,0,1-7.69,2,16,16,0,0,1-5.5-.88A16.5,16.5,0,0,1,89.45,254l-.22-.66H70.76l.66.66A5.28,5.28,0,0,1,73,256.66c.88,2.2,1.32,4.84.22,7a6.82,6.82,0,0,1-3.3,3.73.22.22,0,1,0,0,.44,7.32,7.32,0,0,1,.88,6.38c-.22.88-.66,2-.88,2.86a7.2,7.2,0,0,1-3.52,2.63l-.66.22v.22a1.32,1.32,0,0,0,.22.88,9.86,9.86,0,0,1,.22,2.64,7.48,7.48,0,0,1-.22,2.2c-.66,1.54-2,3.3-3.51,3.74-.88.66-2.2.66-3.52.88H25a17.39,17.39,0,0,1-7.25-2.2,22.77,22.77,0,0,1-6.16-4.4l-.88-.88v-.22c0-.22-.22-.22-.22-.66a14.6,14.6,0,0,1-2.85-9.89c-.66-.88-.66-4-.66-6.6ZM71.2,202.58c.22-.66.22-.66,2.2-2a56.71,56.71,0,0,1,24.18-9,46,46,0,0,1,5.5-.22,45.82,45.82,0,0,1,5.49.22,54.48,54.48,0,0,1,33.64,91.89,54.82,54.82,0,0,1-33.64,16.71,23.14,23.14,0,0,1-5.49.44,46,46,0,0,1-5.5-.22,51.63,51.63,0,0,1-24-8.58,17.87,17.87,0,0,1-2.2-1.53,1.8,1.8,0,0,1,0-1.54c0-.22.22-.66,2.2-2.2a10.8,10.8,0,0,0,2.2-2,2.52,2.52,0,0,1,1.32,0c.22.22.66.22.88.66a45,45,0,0,0,61.55-11,47.18,47.18,0,0,0,0-55.62,49.38,49.38,0,0,0-6.15-7.26C118,197.74,95.16,195.76,78.24,207.2c-.22.22-.66.22-.88.66a1.67,1.67,0,0,1-1.54-.22l-2.2-2c-2-1.54-2-1.54-2.2-2-.22-.22-.22-.88-.22-1.1Zm16.49,14.95c0-.22.22-.22.22-.66.22-.22.66-.66.88-.66a31.84,31.84,0,0,1,11.87-3.3h4.84a31,31,0,0,1,11.43,3.3,27.79,27.79,0,0,1,4.83,2.86A33,33,0,0,1,129,265a31.71,31.71,0,0,1-9.67,9,24.39,24.39,0,0,1-4.18,2,23.15,23.15,0,0,1-9.67,2.19H99.34a29.83,29.83,0,0,1-11.21-3.29,1.89,1.89,0,0,1-1.32-1.54v-.66c0-.44.22-.66,2.2-2.2a6.24,6.24,0,0,0,2.2-2.2,1.37,1.37,0,0,1,1.31,0c1.32.22,2.64.88,3.52.88a22.61,22.61,0,0,0,14.29-.88c7.92-3.3,14.07-10.11,15.39-18.9a53,53,0,0,0,0-8.36,25.61,25.61,0,0,0-7-13.63,27.1,27.1,0,0,0-15-7H99.56a20.84,20.84,0,0,0-6.38,1.54c.22,1.31,0,1.31-.66,1.31h-.65a8.85,8.85,0,0,1-2.2-2.19c-2.64-2.2-2.64-2.2-2.64-2.86.66,0,.66-.44.66-.66Z" transform="translate(-7.01 -191.23)"/><path id="path3740" class="cls-2" d="M7.23,264.13A26.49,26.49,0,0,1,9.86,252.7a9.8,9.8,0,0,1,1.32-2.64c.22-.65.66-1.31.88-2,.66-1.32,1.32-2.2,2-3.3,1.54-2,3.3-3.74,4.4-6.16a28.58,28.58,0,0,0,2-2.63c.22-.66.88-.88.88-1.32l2.19-2.2c3.74-3.52,11.22-9.68,16.27-13.63a13.24,13.24,0,0,0,4.4-5.5c1.54-3.3,2.64-4.18,4.18-4.83a7.78,7.78,0,0,1,1.32-.22,6.87,6.87,0,0,1,2.85.65,10.88,10.88,0,0,1,4.18,3.52,10.32,10.32,0,0,1,.66,5.72,28.52,28.52,0,0,1-4.84,11.21,21.68,21.68,0,0,1-2.19,2.2l-3.74,3.74-.22.22h4.83c6.16,0,11.22,0,12.54.22.88,0,20.66.65,29.45.87,7.7.22,8.36.22,9,.22a8.23,8.23,0,0,1,3.52,1.54l2,2a8.58,8.58,0,0,1,1.54,3.52v3.3a7,7,0,0,1-5.71,5.49H70.76l.66.66a8.28,8.28,0,0,1,2,3.3,11.85,11.85,0,0,0,.66,2.2v3.3A6.78,6.78,0,0,1,72.74,265a8.8,8.8,0,0,1-2.64,2.2l-.22.22a.22.22,0,0,0,.22.22c.22.66.66.88.66,1.54a9.83,9.83,0,0,1,0,6.16,6.57,6.57,0,0,1-4.18,4.17l-.66.22V280c0,.22,0,.66.22.66,0,.22.22.66.22.88,0,.66.22.88,0,1.54v1.54A6,6,0,0,1,65,287.22a8.17,8.17,0,0,1-5.71,2.64H24.81a15.57,15.57,0,0,1-7-2.2,16,16,0,0,1-5.72-4.4l-.88-.88h0c0-.22-.22-.22-.22-.66A19.43,19.43,0,0,1,7.67,271c-.66-.44-.66-5.28-.44-6.82Zm64-61.55c0-.66.22-.66,2-2a52.4,52.4,0,0,1,47.92-6.15c14.29,5.49,26,16.26,31.66,30.55a55,55,0,0,1-7.91,55.18,56.79,56.79,0,0,1-15.61,13.41,20.55,20.55,0,0,1-4.4,2.2,62.36,62.36,0,0,1-16.71,4.4,70.92,70.92,0,0,1-9.67,0,53.3,53.3,0,0,1-25.28-9c-1.54-.88-1.54-.88-2-1.54,0-.22-.22-.66,0-.66,0-.66,0-.66,2.2-2.86.66-.66,1.54-1.32,2.2-2h.66c.44,0,.66,0,1.54.66a48,48,0,0,0,22.64,7.69h5.5a48.83,48.83,0,0,0,22.64-7.69c7.25-4.84,12.75-11.87,16.71-19.57a47.36,47.36,0,0,0-4.4-46.38c-.88-1.32-2-2.64-2.86-3.74a38.28,38.28,0,0,0-4.17-4.18,41.75,41.75,0,0,0-16.05-9.23,44.48,44.48,0,0,0-39.57,5.5c-.66-.22-.88,0-1.32,0H75.6a19.84,19.84,0,0,1-2.2-2c-2.2-2-2.2-2-2.2-2.64Z" transform="translate(-7.01 -191.23)"/><g id="text4567"><path id="path90" class="cls-2" d="M200.58,261.18a42.33,42.33,0,0,1-9.23-.88,45.81,45.81,0,0,1-7-2.64,31.5,31.5,0,0,1-4.84-3.3,8.78,8.78,0,0,1-2.19-2.64l.66-.66,2-2a6.46,6.46,0,0,1,2.2-.66,3.27,3.27,0,0,1,1.32.22,12.4,12.4,0,0,0,1.54.22c.66,0,.88.22,1.54.66s1.32.22,2,.66a39.91,39.91,0,0,0,4.83,1.32c2.2.22,4.4.66,6.38.66h.88a31.24,31.24,0,0,0,6.37-.66c1.54-.22,2.86-1.32,4.18-2a7.54,7.54,0,0,0,2.2-2.85,13.43,13.43,0,0,0,.66-2.86,7.6,7.6,0,0,0-1.54-4.4,17.33,17.33,0,0,0-4.4-3.74,68.25,68.25,0,0,0-6.81-3.73c-2.64-1.32-5.5-2.86-8.36-4.18a34.65,34.65,0,0,1-10.77-8.57,13.53,13.53,0,0,1-2.86-9.9,13.92,13.92,0,0,1,2.2-6.81,16.91,16.91,0,0,1,4.84-4.84,23.75,23.75,0,0,1,6.37-2.86,19.93,19.93,0,0,1,7-1.32A30.43,30.43,0,0,1,210.47,195a40.58,40.58,0,0,1,7.7,3.3,32.8,32.8,0,0,1,6.37,4.84l-.22.22-2,2a6.46,6.46,0,0,1-2.2.66,5.21,5.21,0,0,1-2.63-.66,4.66,4.66,0,0,1-1.54-.66,3.55,3.55,0,0,0-2-.66c-2.2-.88-4.18-1.32-6.38-2a49.46,49.46,0,0,0-5.71-.22A12.54,12.54,0,0,0,199,202a6.77,6.77,0,0,0-2.86.66c-.66,0-1.54.66-2.2.88a4,4,0,0,0-1.32,2.2,5.11,5.11,0,0,0,.88,5.05,21.26,21.26,0,0,0,5.72,4.18c2.64,1.32,5.06,2.86,7.91,4.18a51.86,51.86,0,0,1,8.58,4.39,27.86,27.86,0,0,1,7.91,7.26,16.83,16.83,0,0,1,3.3,7.25,23.39,23.39,0,0,1-.22,6.82,20.78,20.78,0,0,1-12.53,13.19,32.47,32.47,0,0,1-13.63,3.08Z" transform="translate(-7.01 -191.23)"/><path id="path92" class="cls-2" d="M247.62,250.84v4.84a10.75,10.75,0,0,0,.22,2.86c0,.66,0,1.32.22,1.54a18.44,18.44,0,0,1-9.67-2.2,10,10,0,0,1-3.3-7.92l.22-39.57a23.92,23.92,0,0,1,1.54-7.69c.88-2,2.86-3.52,4.84-4.84a19.46,19.46,0,0,1,7-2.64c2.86-.66,5.72-.88,9-1.32a36.85,36.85,0,0,1,9.89.66,33.6,33.6,0,0,1,9.67,3.52,18,18,0,0,1,7.26,6.82,19.6,19.6,0,0,1,3.52,10.77,35.92,35.92,0,0,1-.88,8.35,61.62,61.62,0,0,1-4.4,7,21.39,21.39,0,0,1-7.69,5.71,30.81,30.81,0,0,1-11.88,2.2,61.73,61.73,0,0,1-6.37-.22c-2-.22-3.52-.66-5.06-.88a19.64,19.64,0,0,1-4.83-1.32Zm13.64-21.32A14.36,14.36,0,0,0,271.81,226a13.1,13.1,0,0,0,3.73-10.77,11.45,11.45,0,0,0-2-6.38,8.75,8.75,0,0,0-4.18-3.73,8.47,8.47,0,0,0-5.28-1.76c-2.2-.22-4.39-.22-6.37-.22a12.54,12.54,0,0,0-4.84.88,9.08,9.08,0,0,0-3.3,1.54,5.06,5.06,0,0,0-1.54,2.19,9.07,9.07,0,0,0-.22,2.64V227.1a23.24,23.24,0,0,0,4.18,1.32c1.32.22,2.64.66,4.18.88a35.69,35.69,0,0,0,5.06.22Z" transform="translate(-7.01 -191.23)"/><path id="path94" class="cls-1" d="M370.74,244.91c1.53-6.82,2.85-12.75,4.17-18.25.66-2.2,1.32-4.84,2-7.25a49,49,0,0,0,1.54-6.82c.66-2.2.88-4.18,1.32-5.71a32.07,32.07,0,0,1,.88-3.74,8,8,0,0,1,3.52-5.72,18.61,18.61,0,0,1,4.83-2,28.88,28.88,0,0,1,6.16.22,7.78,7.78,0,0,0-.22,1.32,3.83,3.83,0,0,1-.66,1.54,4.92,4.92,0,0,1-.66,2.2c-2,8.57-4.18,16.93-5.72,24.18l-2.63,9.24c-.66,3.29-1.54,6.15-2.2,8.57-.66,2.64-1.32,4.84-2,6.81s-.88,3.3-1.32,4.18a8.26,8.26,0,0,1-4.18,4.84,29.36,29.36,0,0,1-5.71,2,25.19,25.19,0,0,1-7-.22c-1.54-6.38-2.86-12.09-4.18-18.25-.65-2.64-.87-4.84-1.53-7.69-.66-2.64-.88-5.06-1.54-7.26-.22-2.2-.88-4.4-1.32-6.81-.22-2.2-.66-3.74-.88-5.5-.22,2-.88,4.18-1.32,6.81a55.68,55.68,0,0,1-1.54,7.92,55.62,55.62,0,0,1-1.54,8.35c-.66,2.64-.88,5.06-1.54,7.7a42.87,42.87,0,0,1-1.32,6.15,11.5,11.5,0,0,1-1.32,3.52A8.1,8.1,0,0,1,340.4,259a49.89,49.89,0,0,1-5.5,1.32,35.82,35.82,0,0,1-6.81-.22c-2.64-9.9-4.84-18.91-7-26.82-.88-3.52-2-7-2.64-10.12a89.6,89.6,0,0,0-2.63-9.67c-.66-2.86-1.32-5.72-2-7.69-.66-2.2-.88-3.74-1.32-4.84a6.46,6.46,0,0,0-.66-2.2,12.4,12.4,0,0,0-.22-1.54v-1.32a10.11,10.11,0,0,1,5.71-.22,10.32,10.32,0,0,1,4.84,2,8.48,8.48,0,0,1,3.52,5.72,32.33,32.33,0,0,1,.88,3.73c.22,1.54.88,3.52,1.32,5.72.66,2.2.88,4.4,1.54,6.82.66,2.63,1.31,4.83,2,7.25,1.32,5.72,2.86,11.87,4.18,18.25,1.54-7.26,2.86-14.29,4.18-20.45l1.54-7.91a54.05,54.05,0,0,0,1.54-7.26c.66-2.2.88-4.17,1.32-5.71a11.22,11.22,0,0,1,1.31-3.52A9.27,9.27,0,0,1,349,196.1a10.25,10.25,0,0,1,4.4-1.32,13.31,13.31,0,0,1,5.05.66c.22,1.32.66,2.64.88,3.74.66,1.54.88,3.74,1.54,6.38s1.32,5.05,2,7.91a47.68,47.68,0,0,1,2.86,9c1.54,6.38,3.52,14.07,5.06,22.43Z" transform="translate(-7.01 -191.23)"/><path id="path96" class="cls-2" d="M447,250.18v.66a8.75,8.75,0,0,1-1.32,5.06,7,7,0,0,1-3.3,2.86,10.2,10.2,0,0,1-4.39,1.32,26.67,26.67,0,0,0-4.4.22,74.4,74.4,0,0,1-15.61-.88,29.19,29.19,0,0,1-10.55-5.06,25.61,25.61,0,0,1-6.38-9.67,46.43,46.43,0,0,1-2-15.61V211.27a18.72,18.72,0,0,1,2.19-9.89,6.69,6.69,0,0,1,2.64-2.86,9.18,9.18,0,0,1,3.52-2,15.37,15.37,0,0,1,2.64-.66,13.43,13.43,0,0,0,2.86-.66c1.31,0,2.85-.22,4.39-.22h13.85c4.18,0,7.26,0,9.24-.22a32.2,32.2,0,0,1,3.51-.22h.88v.66a8.75,8.75,0,0,1-1.32,5.06,7,7,0,0,1-3.29,2.86,30.57,30.57,0,0,1-4.18,1.32c-1.54,0-2.86.22-4.4.22H414.7a1.32,1.32,0,0,0-.88.22c-.22,0-.65,0-.65.22a1.18,1.18,0,0,0-.88.66c-.22.22-.22.88-.66,1.31v2l.22,11.44H436a8.93,8.93,0,0,1-2.64,6.81,9.42,9.42,0,0,1-7,2.64H411.41a34.28,34.28,0,0,0,.88,10.55,18.28,18.28,0,0,0,3.51,6.82,16.56,16.56,0,0,0,6.38,3.51,47.94,47.94,0,0,0,9.67.88c4.4,0,7.7,0,9.89-.22,2.64,0,3.74-.22,4.4-.22h.22Z" transform="translate(-7.01 -191.23)"/><path id="path98" class="cls-2" d="M480.22,261.18a56.61,56.61,0,0,1-11.87-1.54,20.48,20.48,0,0,1-9-5.5,28.66,28.66,0,0,1-5.71-9.67,44.93,44.93,0,0,1-2-14.29V210.39a18.75,18.75,0,0,1,2.2-9.89,11.69,11.69,0,0,1,6.15-5.06,53.62,53.62,0,0,1,5.72-1.32,32.42,32.42,0,0,1,4.39-.22h4.4a24.16,24.16,0,0,1,9,1.32,20.34,20.34,0,0,1,6.38,3.52,16.81,16.81,0,0,1,3.74,5.06A15.48,15.48,0,0,1,495,210a10.91,10.91,0,0,1-1.32,5.72,22.41,22.41,0,0,1-3.52,4.84,18.5,18.5,0,0,1,5.5,2.85,16.9,16.9,0,0,1,7.25,9.68c.66,2.19,1.32,4.39.88,6.81a16.27,16.27,0,0,1-2,7.92,29.71,29.71,0,0,1-4.84,6.81,25.19,25.19,0,0,1-7.69,4.84,21.2,21.2,0,0,1-9,1.76Zm-15.83-42.87H473a16.17,16.17,0,0,0,8.36-2,8,8,0,0,0,2.41-10.11,12.72,12.72,0,0,0-2.19-2.64,9.13,9.13,0,0,0-2.86-1.54,15.58,15.58,0,0,0-3.3-.22h-2.86A18.92,18.92,0,0,0,469,202a8.38,8.38,0,0,0-2.85,1.32,3.27,3.27,0,0,0-1.32,2.86Zm15.83,33.63a15.14,15.14,0,0,0,5.49-.88,14.45,14.45,0,0,0,3.74-2.64c.88-.87,1.54-2.63,2.2-3.73a36.53,36.53,0,0,0,.66-4.84c0-2.2-.22-4.84-1.54-6.81a11.43,11.43,0,0,0-3.74-4.18,20.26,20.26,0,0,0-5-2,11.53,11.53,0,0,0-5.5-.22H464.83v4.18a34.28,34.28,0,0,0,.88,10.55,15.3,15.3,0,0,0,3.29,6.82,13.27,13.27,0,0,0,5.06,3.51C475.6,251.5,477.8,251.94,480.22,251.94Z" transform="translate(-7.01 -191.23)"/><g id="text953"><path id="path1006" class="cls-1" d="M196.4,278.34c-.88,2.86-2,5.72-2.86,7.92-.22,1.31-.66,2.19-.88,3.29a17.31,17.31,0,0,0-1.31,2.86,15.37,15.37,0,0,0-.66,2.64c0,.66-.66.88-.66,1.1-.22.66-.66.88-1.32,1.32a1.32,1.32,0,0,1-.88.22h-1.32l-7.92-19.57h1.32a2.79,2.79,0,0,1,1.32.22,1.18,1.18,0,0,1,.88.66c.22.44.66.66.88,1.32a1.7,1.7,0,0,0,.22.66,3.83,3.83,0,0,0,.66,1.54,3.83,3.83,0,0,0,.66,1.54c.22.66.66,1.54.88,2.2a65.59,65.59,0,0,0,2.64,6.15c.66-2.2,1.54-4.18,2-6.15a4.24,4.24,0,0,1,.66-2.2l.66-2c.22-.66.22-1.32.66-1.54a2.22,2.22,0,0,1,.22-.66,2.39,2.39,0,0,1,.65-1.32c.44-.44.66-.66.88-.66s.88-.22,1.32-.22a2.51,2.51,0,0,1,1.32.66Z" transform="translate(-7.01 -191.23)"/><path id="path1008" class="cls-1" d="M205,286.69a7.1,7.1,0,0,1,1.31,2.2,9.28,9.28,0,0,1,.66,2.64,9.07,9.07,0,0,1-.22,2.64,5.16,5.16,0,0,1-1.31,2,2.5,2.5,0,0,1-2,1.54,8.38,8.38,0,0,1-2.2.66,3.72,3.72,0,0,1-2.2-.66,5,5,0,0,1-2.2-1.54,10.33,10.33,0,0,0-1.32-2,11.63,11.63,0,0,1-.22-2.64,9.86,9.86,0,0,1,.22-2.64,5.86,5.86,0,0,1,1.32-2.2,2.67,2.67,0,0,1,1.54-1.53,9.07,9.07,0,0,1,2.64-.22,3.72,3.72,0,0,1,2.2.66C203.88,285.38,204.54,286,205,286.69Zm-3.74,9a1.32,1.32,0,0,0,.88-.22,1.18,1.18,0,0,0,.88-.66,7.78,7.78,0,0,0,.22-1.32,11.11,11.11,0,0,0,0-4.4,1.57,1.57,0,0,0-.66-1.32,7.78,7.78,0,0,0-1.32-.22c0-.22-.22-.22-.66-.22a1.32,1.32,0,0,0-.88.22.7.7,0,0,0-.66.66,3.38,3.38,0,0,0-.88,1.32v2.2a7.48,7.48,0,0,0,.22,2.2,3.4,3.4,0,0,0,.66,1.32c.22.22.66.66.88.66s1.1-.22,1.32-.22Z" transform="translate(-7.01 -191.23)"/><path id="path1010" class="cls-1" d="M215.31,294.39c0-.22,0-.66-.22-.66-.22-.22-.66-.22-.88-.66-.22-.22-.88-.22-1.32-.66a4.72,4.72,0,0,1-1.54-.88l-.88-.88c-.22-.22-.66-.66-.66-.88s-.22-.88-.22-1.32a2.79,2.79,0,0,1,.22-1.32,1.17,1.17,0,0,1,.66-.87c.22-.22.66-.66.88-.66a1.32,1.32,0,0,1,.88-.22h1.1A5.23,5.23,0,0,1,216,286a6.82,6.82,0,0,1,2,1.53h0c0,.22-.22.22-.66.66-.22,0-.22.22-.66.22H216c0-.66-.22-.66-.66-.66s-.66-.22-.88-.22-.66-.22-.88-.22a1.32,1.32,0,0,0-.88.22c-.22,0-.22.22-.22.66s0,.66.22.88.66.66.88.66c.66.22,1.32.66,2,.88a2.14,2.14,0,0,1,2,.88c.66.22.88.88,1.32,1.54a3.73,3.73,0,0,1,0,2.2c0,.22-.22.66-.22.88l-.88.88a2.42,2.42,0,0,0-1.32.66,6.09,6.09,0,0,1-2,.22h-.22a5.23,5.23,0,0,1-2.64-.66,19.84,19.84,0,0,1-2.2-2h0l.22-.22.22-.22c.22,0,.22-.22.66-.22s.66,0,.66.22l.66.22c.22,0,.66.22.88.22s.66.22.88.22a2.38,2.38,0,0,0,1.32-.22A.88.88,0,0,0,215.31,294.39Z" transform="translate(-7.01 -191.23)"/><path id="path1012" class="cls-1" d="M228.06,290.43c.66-.22.88-.66,1.54-.66a6.09,6.09,0,0,1,2-.22,9.75,9.75,0,0,1,2.63.22c0-.66-.22-.88-.22-1.54,0-.22-.65-.66-.87-.88-.22,0-.22-.22-.66-.22h-1.54c-.22,0-.66,0-.66.22a2.22,2.22,0,0,0-.66.22h-.66c-.22,0-.66,0-.66-.22l-.66-.66h0a6.07,6.07,0,0,1,4.18-2.19h.44a7.42,7.42,0,0,1,2.19.22,5.19,5.19,0,0,1,2,1.32,36.86,36.86,0,0,1,.88,4.83v.22a7.71,7.71,0,0,1-1.32,4.84,5.13,5.13,0,0,1-3.73,2.2h-2c-.22,0-.88-.22-1.32-.22-.22-.22-.66-.22-1.32-.66l-.88-.88c0-.88-.22-1.54-.22-2.2V294a6.09,6.09,0,0,1,.22-2,8.22,8.22,0,0,0,1.32-1.54Zm5.71,1.76H230.7c-.44,0-.66.22-.88.66a.22.22,0,0,1-.22.22v1.1c0,.44.22.22.22.66.22.22.22.22.66.22s.66.22,1.32.22h0c.22,0,.88-.22,1.32-.22s.22-.22.22-.22c0-.22.22-.22.22-.66a1.37,1.37,0,0,0,.21-.88v-.88h-.21l.21-.22Z" transform="translate(-7.01 -191.23)"/><path id="path1014" class="cls-1" d="M238.83,291.53a9.86,9.86,0,0,1,.22-2.64,5.86,5.86,0,0,1,1.32-2.2c.66-.65,1.32-.87,2-1.53a8.38,8.38,0,0,1,2.2-.66,6.63,6.63,0,0,1,2.64.66,6.24,6.24,0,0,1,2,1.53,7.32,7.32,0,0,1,1.32,2.2,9.28,9.28,0,0,1,.66,2.64,9.07,9.07,0,0,1-.22,2.64,5.86,5.86,0,0,1-1.32,2.2c-.66.22-1.32.88-2.19,1.32a8.38,8.38,0,0,1-2.2.66,6.77,6.77,0,0,1-2.86-.66v7a5.23,5.23,0,0,1-2.64-.66c0-.88-.22-1.54-.22-2.64Zm6.16,4.18a1.32,1.32,0,0,0,.88-.22,1.18,1.18,0,0,0,.88-.66,2.51,2.51,0,0,0,.66-1.32,11.63,11.63,0,0,0,0-4.4c-.22-.22-.22-.88-.66-1.32-.66,0-.88-.22-1.32-.22-.22,0-.66-.22-.88-.22a1.32,1.32,0,0,0-.88.22,1.18,1.18,0,0,0-.88.66,7.78,7.78,0,0,0-.22,1.32,11.11,11.11,0,0,0,0,4.4,2.51,2.51,0,0,0,.66,1.32c.22.22.66.66.88.66A1.32,1.32,0,0,1,245,295.71Z" transform="translate(-7.01 -191.23)"/><path id="path1016" class="cls-1" d="M252.9,291.53a9.86,9.86,0,0,1,.22-2.64,5.86,5.86,0,0,1,1.32-2.2c.66-.65,1.32-.87,2-1.53a8.38,8.38,0,0,1,2.2-.66,6.63,6.63,0,0,1,2.64.66,6.24,6.24,0,0,1,2,1.53,7.32,7.32,0,0,1,1.32,2.2,15.95,15.95,0,0,1,0,5.28,5.86,5.86,0,0,1-1.32,2.2c-.66.66-1.32.88-2,1.54a8.38,8.38,0,0,1-2.2.66,6.77,6.77,0,0,1-2.86-.66v7a5.23,5.23,0,0,1-2.64-.66,3.51,3.51,0,0,1-.88-2.64Zm6.16,4.18a1.32,1.32,0,0,0,.88-.22,1.18,1.18,0,0,0,.88-.66,2.5,2.5,0,0,0,.65-1.32v-2a7.83,7.83,0,0,0-.21-2.2c-.22-.22-.22-.88-.66-1.32-.22-.22-.66-.66-.88-.66s-.66-.22-.88-.22a1.32,1.32,0,0,0-.88.22,1.18,1.18,0,0,0-.88.66,2.51,2.51,0,0,0-.66,1.32,11.11,11.11,0,0,0,0,4.4,2.51,2.51,0,0,0,.66,1.32c.22.22.66.66.88.66Z" transform="translate(-7.01 -191.23)"/><path id="path1018" class="cls-1" d="M272.47,295.27v1.32a1.18,1.18,0,0,1-.66.88,1.88,1.88,0,0,1-1.32.66,3.74,3.74,0,0,1-1.54-.22c-.22-.22-.66-.22-.88-.66a1.88,1.88,0,0,1-.66-1.32c0-.22-.22-.88-.22-1.32L267,281v-2.86a5.23,5.23,0,0,1,2.64.66,3.15,3.15,0,0,1,.88,2.2l.22,12.75a1.32,1.32,0,0,0,.22.88c0,.22.22.22.66.22h.66c-.22.88.22.44.22.44Z" transform="translate(-7.01 -191.23)"/><path id="path1020" class="cls-1" d="M277.3,281a1.47,1.47,0,0,1-1.54.88,1.3,1.3,0,0,1-.87-.22c0-.22-.22-.22-.22-.66s-.22-.66-.22-.88a1.32,1.32,0,0,1,.22-.88.7.7,0,0,1,.65-.66,1.32,1.32,0,0,1,.88-.22,1.47,1.47,0,0,1,1.54.88v.88c-.22.22-.22.44-.44.88Zm2.42,14.29-.22.22h-.66c-.22,0-.22-.22-.66-.22a1.32,1.32,0,0,1-.22-.88l-.22-6.82v-2.85a5.16,5.16,0,0,0-2.63.66,9.21,9.21,0,0,0-.66,2.63v6.82a3.27,3.27,0,0,0,.22,1.32,3.48,3.48,0,0,0,.65,1.32c.22.22.66.66.88.66.22.22.88.22,1.54.22a2.42,2.42,0,0,0,1.32-.66c.22-.22.22-.66.66-.88v-1.54Z" transform="translate(-7.01 -191.23)"/><path id="path1022" class="cls-1" d="M286.76,286.91a1.32,1.32,0,0,0-.88.22,1.18,1.18,0,0,0-.88.66c-.22.44-.66.88-.66,1.32a11.11,11.11,0,0,0,0,4.4,2.51,2.51,0,0,0,.66,1.32c.22.22.66.66.88.66a1.32,1.32,0,0,1,.88.22h.88a1.32,1.32,0,0,0,.88-.22,2.12,2.12,0,0,0,.65-.22h.66c.22,0,.66,0,.66.22l.66.66h0a5.06,5.06,0,0,1-2.19,1.54,9.28,9.28,0,0,1-2.64.66,3.28,3.28,0,0,1-2.2-.66,6.07,6.07,0,0,0-1.54-2,7.32,7.32,0,0,1-1.32-2.2,6.71,6.71,0,0,1,0-5.06,5.75,5.75,0,0,1,1.32-2.19,10.33,10.33,0,0,1,2-1.32,7.69,7.69,0,0,1,2.64-.66,5.19,5.19,0,0,1,2.63.66,5,5,0,0,1,2.2,1.54h0a.7.7,0,0,1-.66.65c-.66.22-.66.66-.88.22h-.66a2.22,2.22,0,0,1-.66-.22c-.21,0-.65-.22-.87-.22Z" transform="translate(-7.01 -191.23)"/><path id="path1024" class="cls-1" d="M295.11,290.43c.66-.22.88-.66,1.54-.66a6.09,6.09,0,0,1,2-.22,9.86,9.86,0,0,1,2.64.22c0-.66-.22-.88-.22-1.54l-.88-.88c-.22,0-.22-.22-.66-.22H298c-.22,0-.66,0-.66.22a2.22,2.22,0,0,0-.66.22H296c-.22,0-.66,0-.66-.22-.22,0-.22-.22-.66-.66h0a6.07,6.07,0,0,1,4.18-2.19h.44a7.48,7.48,0,0,1,2.2.22,5.17,5.17,0,0,1,2,1.32,36.86,36.86,0,0,1,.88,4.83v.22a7.71,7.71,0,0,1-1.32,4.84,5.1,5.1,0,0,1-3.73,2.2h-1.76c-.22,0-.88-.22-1.32-.22-.22-.22-.66-.22-1.32-.66l-.88-.88c0-.88-.22-1.54-.22-2.2V294a6.09,6.09,0,0,1,.22-2,3.37,3.37,0,0,1,1.1-1.54Zm5.5,1.76h-3.08a1.18,1.18,0,0,0-.88.66.22.22,0,0,1-.22.22v1.1c0,.44.22.22.22.66.22.22.22.22.66.22a7.78,7.78,0,0,0,1.32.22h.22c.22,0,.88-.22,1.32-.22a.22.22,0,0,0,.22-.22c0-.22.22-.22.22-.66a1.32,1.32,0,0,0,.22-.88v-.88h-.22c.22-.22.22-.22,0-.22Z" transform="translate(-7.01 -191.23)"/><path id="path1026" class="cls-1" d="M313.36,295.27h0v.66a1.32,1.32,0,0,1-.22.88c0,.22,0,.22-.22.66a7,7,0,0,1-2,.66c-.66,0-1.32,0-1.54-.22a2.33,2.33,0,0,1-1.54-1.32,7.32,7.32,0,0,1-1.32-2.2,12.54,12.54,0,0,1-.22-2.86l-.66-8.13a3.84,3.84,0,0,1,.88-2.64,3.43,3.43,0,0,1,2.64-.66v4.84h3.52a3,3,0,0,1-.66,2,1.88,1.88,0,0,1-2,.66h-.88v3.74a6.09,6.09,0,0,0,.22,2,2.42,2.42,0,0,0,.66,1.32c.22.66,1.32.88,2,.88h.88l.44-.22Z" transform="translate(-7.01 -191.23)"/><path id="path1028" class="cls-1" d="M317.75,281a1.47,1.47,0,0,1-1.53.88,1.32,1.32,0,0,1-.88-.22.7.7,0,0,1-.66-.66c0-.44-.22-.66-.22-.88a1.32,1.32,0,0,1,.22-.88.7.7,0,0,1,.66-.66,1.32,1.32,0,0,1,.88-.22,1.47,1.47,0,0,1,1.53.88c0,.22.22.66.22.88-.22.22-.22.44-.22.88Zm2.64,14.29-.22.22h-.66c-.22,0-.22-.22-.66-.22a1.32,1.32,0,0,1-.22-.88l-.22-6.82v-2.85a5.19,5.19,0,0,0-2.63.66,3.48,3.48,0,0,0-.88,2.63v6.82a3.27,3.27,0,0,0,.22,1.32,3.4,3.4,0,0,0,.66,1.32c.22.22.66.66.88.66.21.22.87.22,1.53.22a2.42,2.42,0,0,0,1.32-.66c.22-.22.22-.66.66-.88a4.29,4.29,0,0,0,.22-1.54Z" transform="translate(-7.01 -191.23)"/><path id="path1030" class="cls-1" d="M331.6,286.69a7.32,7.32,0,0,1,1.32,2.2,9.28,9.28,0,0,1,.66,2.64,9.07,9.07,0,0,1-.22,2.64,5.86,5.86,0,0,1-1.32,2.2c-.66.66-1.32.88-2,1.54a7.69,7.69,0,0,1-2.64.66,3.28,3.28,0,0,1-2.2-.66,12.09,12.09,0,0,1-2-1.54c-.66-.88-.88-1.54-1.32-2.2a9.28,9.28,0,0,1-.66-2.64,9.07,9.07,0,0,1,.22-2.64,5.86,5.86,0,0,1,1.32-2.2c.66-.65,1.32-.87,2-1.53a7.69,7.69,0,0,1,2.64-.66,3.28,3.28,0,0,1,2.2.66A12.52,12.52,0,0,1,331.6,286.69Zm-4.17,9a1.32,1.32,0,0,0,.88-.22,1.18,1.18,0,0,0,.88-.66c.22-.44.66-.88.66-1.32a11.11,11.11,0,0,0,0-4.4,1.57,1.57,0,0,0-.66-1.32c-.66,0-.88-.22-1.32-.22-.22,0-.66-.22-.88-.22a1.32,1.32,0,0,0-.88.22,1.18,1.18,0,0,0-.88.66c-.22.44-.66.88-.66,1.32a11.11,11.11,0,0,0,0,4.4c.66.22.88.66,1.32,1.32.22.22.66.66.88.66,0-.22.22-.22.66-.22Z" transform="translate(-7.01 -191.23)"/><path id="path1032" class="cls-1" d="M335.34,290.87a17.79,17.79,0,0,1,.22-3.3,5.17,5.17,0,0,1,1.32-2c.66-.22,1.32-.66,2-.88a13.32,13.32,0,0,1,4.18,0,2.67,2.67,0,0,1,2,.88,10.27,10.27,0,0,1,1.32,2,12.46,12.46,0,0,1,.66,3.3l.22,7a5.23,5.23,0,0,1-2.64-.66,3.18,3.18,0,0,1-.87-2.2v-3.74a6.09,6.09,0,0,0-.22-2,2.42,2.42,0,0,0-.66-1.32c-.22-.22-.66-.22-.88-.66h-1.76a.7.7,0,0,0-.66.66c-.22.22-.22.66-.66,1.32,0,.66-.22,1.32-.22,2v7.26a5.23,5.23,0,0,1-2.64-.66,3.15,3.15,0,0,1-.88-2.2Z" transform="translate(-7.01 -191.23)"/><path id="path1034" class="cls-1" d="M355.57,294.39c0-.22,0-.66-.22-.66-.22-.22-.66-.22-.88-.66-.22-.22-.88-.22-1.32-.66a4.72,4.72,0,0,1-1.54-.88l-.88-.88c-.22-.22-.22-.66-.66-1.32,0-.22-.22-.88-.22-1.32a2.79,2.79,0,0,1,.22-1.32,1.18,1.18,0,0,1,.66-.87c.44-.22.66-.66.88-.66a1.32,1.32,0,0,1,.88-.22h1.1a5.23,5.23,0,0,1,2.64.66,6.81,6.81,0,0,1,2,1.53h0c0,.22-.21.22-.65.66-.22,0-.22.22-.66.22h-.66a.22.22,0,0,0-.22-.22c-.22,0-.66-.22-.88-.22s-.66-.22-.88-.22a1.32,1.32,0,0,0-.88.22c-.22,0-.22.22-.22.66s0,.66.22.88.66.66.88.66c.66.22,1.32.66,2,.88a4.72,4.72,0,0,1,1.54.88c.65.22.87.88,1.31,1.54a3.73,3.73,0,0,1,0,2.2c0,.22-.22.66-.22.88L358,297a2.51,2.51,0,0,1-1.32.66,6.09,6.09,0,0,1-2,.22h-.22a5.23,5.23,0,0,1-2.64-.66,5,5,0,0,1-2.2-1.54h0l.22-.22.22-.22c.22,0,.22-.22.66-.22.22,0,.66,0,.66.22l.66.22c.22,0,.66.22.88.22s.66.22.88.22a2.38,2.38,0,0,0,1.32-.22,2.17,2.17,0,0,0,.44-1.32Z" transform="translate(-7.01 -191.23)"/><path id="path1036" class="cls-2" d="M372.71,286.91a1.28,1.28,0,0,0-.87.22,1.18,1.18,0,0,0-.88.66,2.51,2.51,0,0,0-.66,1.32v2.2a7.48,7.48,0,0,0,.22,2.2,2.51,2.51,0,0,0,.66,1.32c.22.22.66.66.87.66a1.32,1.32,0,0,1,.88.22h.88a1.32,1.32,0,0,0,.88-.22,2.22,2.22,0,0,0,.66-.22H376c.22,0,.66,0,.66.22l.66.66h0a5,5,0,0,1-2.2,1.54,9.28,9.28,0,0,1-2.64.66,3.27,3.27,0,0,1-2.19-.66l-2-1.32a7.32,7.32,0,0,1-1.32-2.2,6.71,6.71,0,0,1,0-5.06,5.86,5.86,0,0,1,1.32-2.2,10.75,10.75,0,0,1,2-1.31,7.69,7.69,0,0,1,2.63-.66,4.69,4.69,0,0,1,2.64.66,5.09,5.09,0,0,1,2.2,1.53h0a.7.7,0,0,1-.66.66c-.66-.22-.66-.22-.88-.22h-.66a2.22,2.22,0,0,1-.66-.22c-.22,0-.66-.22-.88-.22A3.87,3.87,0,0,0,372.71,286.91Z" transform="translate(-7.01 -191.23)"/><path id="path1038" class="cls-2" d="M384.59,295.27v1.32a1.18,1.18,0,0,1-.66.88,1.88,1.88,0,0,1-1.32.66,3.74,3.74,0,0,1-1.54-.22c-.22-.22-.66-.22-.88-.66-.22-.22-.22-.88-.66-1.32,0-.22-.22-.88-.22-1.32L379.09,281v-2.86a5.23,5.23,0,0,1,2.64.66,3.15,3.15,0,0,1,.88,2.2l.22,12.75a1.32,1.32,0,0,0,.22.88c0,.22.22.22.66.22h.66c-.22.88.22.44.22.44Z" transform="translate(-7.01 -191.23)"/><path id="path1040" class="cls-2" d="M388.1,282.74l.88-.88c.22-.66.66-.88.88-1.32l.88-.88a3.38,3.38,0,0,1,1.32-.88c.22,0,.66-.22.88-.22.66-.22.88,0,1.32.66.22.66,0,.88-.66,1.32-.22.66-.88.88-1.32,1.32a22.82,22.82,0,0,1-2.2.88c-.22-.22-1.1,0-2,0Zm8.14,12.31c.22.22.66.22.66.66h0a8.4,8.4,0,0,1-2,2,9.28,9.28,0,0,1-2.64.66,3.72,3.72,0,0,1-2.2-.66,5,5,0,0,1-2.2-1.54,7.32,7.32,0,0,1-1.32-2.2,8.38,8.38,0,0,1-.66-2.2,9.86,9.86,0,0,1,.22-2.64,5.86,5.86,0,0,1,1.32-2.2,10.75,10.75,0,0,1,2-1.31,4.69,4.69,0,0,1,2.64-.66,3.74,3.74,0,0,1,1.54.22,1.71,1.71,0,0,1,1.54.66c.66.22.88.87,1.32,1.31a7,7,0,0,1,.66,2,2.42,2.42,0,0,1-.66,2l-1.32,1.32a4.66,4.66,0,0,0-1.54.66h-3.08l-.88-.22a12.4,12.4,0,0,0,.22,1.54c.22.22.22.66.66.88.22.22.66.22.88.66h1.54a1.32,1.32,0,0,0,.88-.22,2.22,2.22,0,0,0,.66-.22h.66c.88-.44.88-.44,1.1-.44Zm-4.4-8.14c-.22,0-.22,0-.66.22a2.22,2.22,0,0,0-.66.22c-.22.22-.66.66-.66.88a3.74,3.74,0,0,0-.22,1.54c.22,0,.88.22,1.32.22h1.54c.66,0,.88-.22,1.32-.22a2.51,2.51,0,0,0,.66-1.32,1.9,1.9,0,0,0-.66-1.32,6.09,6.09,0,0,0-2-.22Z" transform="translate(-7.01 -191.23)"/><path id="path1042" class="cls-2" d="M405.69,294.39c0-.22,0-.66-.22-.66-.22-.22-.66-.22-.88-.66-.22-.22-.88-.22-1.32-.66a4.72,4.72,0,0,1-1.54-.88l-.88-.88c-.22-.22-.22-.66-.66-1.32,0-.22-.22-.88-.22-1.32a2.79,2.79,0,0,1,.22-1.32,1.18,1.18,0,0,1,.66-.87c.22-.22.66-.66.88-.66a1.32,1.32,0,0,1,.88-.22h1.1a5.23,5.23,0,0,1,2.64.66,4.48,4.48,0,0,1,2,1.53h0c.22.66,0,.66-.22.88-.22,0-.22.22-.66.22h-.66c-.22-.66-.22-.66-.66-.66s-.66-.22-.88-.22-.66-.22-.88-.22a1.32,1.32,0,0,0-.88.22c-.22,0-.22.22-.22.66s0,.66.22.88.66.66.88.66c.66.22,1.32.66,2,.88a4.72,4.72,0,0,1,1.54.88c.66.22.88.88,1.32,1.54a3.73,3.73,0,0,1,0,2.2c0,.22-.22.66-.22.88l-.88.88a2.51,2.51,0,0,1-1.32.66,6.09,6.09,0,0,1-2,.22h-.22A5.23,5.23,0,0,1,402,297a5,5,0,0,1-2.2-1.54h0l.22-.22.22-.22c.22,0,.22-.22.66-.22.22,0,.66,0,.66.22h.88c.22,0,.66.22.88.22s.66.22.88.22a2.38,2.38,0,0,0,1.32-.22A1.32,1.32,0,0,0,405.69,294.39Z" transform="translate(-7.01 -191.23)"/><path id="path1044" class="cls-1" d="M427,295.05c.22.22.65.22.65.66h0a4.94,4.94,0,0,1-2.19,1.54,9.28,9.28,0,0,1-2.64.66,3.72,3.72,0,0,1-2.2-.66,6.07,6.07,0,0,1-2-1.54,7.32,7.32,0,0,1-1.32-2.2,9.28,9.28,0,0,1-.66-2.64,9.07,9.07,0,0,1,.22-2.64,5.75,5.75,0,0,1,1.32-2.19,10.33,10.33,0,0,1,2-1.32,4.69,4.69,0,0,1,2.64-.66,3.74,3.74,0,0,1,1.54.22,1.71,1.71,0,0,1,1.54.66c.66.22.88.88,1.32,1.32a7.12,7.12,0,0,1,.65,2,2.45,2.45,0,0,1-.65,2l-1.32,1.32a4.66,4.66,0,0,0-1.54.66H421.3l-.88-.22a12.4,12.4,0,0,0,.22,1.54c.22.22.22.66.66.88.22.22.66.22.88.66h1.54a1.32,1.32,0,0,0,.88-.22,2.22,2.22,0,0,0,.66-.22h.66A2.22,2.22,0,0,0,427,295.05Zm-4.18-8.14c-.22,0-.22,0-.66.22a2.22,2.22,0,0,0-.66.22c-.22.22-.66.66-.66.88a3.74,3.74,0,0,0-.22,1.54c.22,0,.88.22,1.32.22h1.54c.66,0,.88-.22,1.32-.22a2.51,2.51,0,0,0,.66-1.32,1.9,1.9,0,0,0-.66-1.32,6.09,6.09,0,0,0-2-.22Z" transform="translate(-7.01 -191.23)"/><path id="path1046" class="cls-1" d="M430.09,290.87a17.79,17.79,0,0,1,.22-3.3,5.17,5.17,0,0,1,1.32-2c.66-.22,1.32-.66,2-.88a13.32,13.32,0,0,1,4.18,0,2.69,2.69,0,0,1,2,.88,10.27,10.27,0,0,1,1.32,2,12.91,12.91,0,0,1,.65,3.3l.22,7a5.21,5.21,0,0,1-2.63-.66,3.15,3.15,0,0,1-.88-2.2v-3.74a6.09,6.09,0,0,0-.22-2,2.42,2.42,0,0,0-.66-1.32c-.22-.22-.66-.22-.88-.66h-1.76a.7.7,0,0,0-.66.66c-.22.22-.22.66-.66,1.32,0,.66-.22,1.32-.22,2v7.26a5.23,5.23,0,0,1-2.64-.66,3.15,3.15,0,0,1-.88-2.2Z" transform="translate(-7.01 -191.23)"/><path id="path1048" class="cls-1" d="M466.81,290.87a6.09,6.09,0,0,0-.22-2,2.42,2.42,0,0,0-.66-1.32c-.44-.44-.66-.22-.88-.66h-1.76a.7.7,0,0,0-.66.66c-.22.22-.22.66-.66,1.32,0,.66-.22,1.32-.22,2v7.26a5.23,5.23,0,0,1-2.64-.66,3.15,3.15,0,0,1-.88-2.2v-3.74a6.09,6.09,0,0,0-.22-2,2.42,2.42,0,0,0-.66-1.32c-.22-.22-.66-.22-.88-.66h-1.75a.7.7,0,0,0-.66.66c-.22.22-.22.66-.66,1.32,0,.66-.22,1.32-.22,2v7.26a5.23,5.23,0,0,1-2.64-.66,3.15,3.15,0,0,1-.88-2.2v-3.74a17.79,17.79,0,0,1,.22-3.3,5.19,5.19,0,0,1,1.32-2c.66-.22,1.32-.65,2-.87a6.06,6.06,0,0,1,2-.22,7.48,7.48,0,0,1,2.2.22c.66.22,1.32.65,2,.87a2.71,2.71,0,0,1,2-.87,13.32,13.32,0,0,1,4.18,0,2.71,2.71,0,0,1,2,.87c2.19-.65,2.63,0,2.85.66a12.46,12.46,0,0,1,.66,3.3v7.26a5.16,5.16,0,0,1-2.63-.66,3.15,3.15,0,0,1-.88-2.2Z" transform="translate(-7.01 -191.23)"/><path id="path1050" class="cls-1" d="M473.84,290.43c.66-.22.88-.66,1.54-.66a6.09,6.09,0,0,1,2-.22,9.86,9.86,0,0,1,2.64.22c0-.66-.22-.88-.22-1.54-.22-.66-.66-.88-.88-1.32-.22,0-.22-.22-.66-.22H476.7c-.22,0-.66,0-.66.22a2.22,2.22,0,0,0-.66.22h-.66c-.22,0-.66,0-.66-.22l-.66-.65h0a6,6,0,0,1,4.18-2.2H478a7.48,7.48,0,0,1,2.2.22,5.19,5.19,0,0,1,2,1.32c.22,2,.87,3.51.87,5v.22a7.76,7.76,0,0,1-1.31,4.84,5.13,5.13,0,0,1-3.74,2.2h-1.76c-.22,0-.88-.22-1.32-.22-.22-.22-.66-.22-1.32-.66l-.88-.88c0-.88-.22-1.54-.22-2.2v-.22a6.09,6.09,0,0,1,.22-2c.22-.22.66-.88,1.1-1.32Zm5.5,1.76h-3.08a1.18,1.18,0,0,0-.88.66.22.22,0,0,1-.22.22v1.1c0,.44.22.22.22.66.22.22.22.22.66.22a7.78,7.78,0,0,0,1.32.22h.22c.22,0,.88-.22,1.32-.22a.22.22,0,0,0,.22-.22c0-.22.22-.22.22-.66a1.32,1.32,0,0,0,.22-.88v-.88h0l-.22-.22Z" transform="translate(-7.01 -191.23)"/><path id="path1052" class="cls-1" d="M488.35,281a1.47,1.47,0,0,1-1.54.88,1.32,1.32,0,0,1-.88-.22c0-.22-.22-.22-.66-.66v-.88a1.32,1.32,0,0,1,.22-.88.7.7,0,0,1,.66-.66c0-.22.22-.22.66-.22a1.47,1.47,0,0,1,1.54.88V281Zm2.2,14.29-.22.22h-.66c-.44,0-.22-.22-.66-.22a1.32,1.32,0,0,1-.22-.88v-9.67a5.23,5.23,0,0,0-2.64.66,3.48,3.48,0,0,0-.88,2.63v6.82a3.27,3.27,0,0,0,.22,1.32,3.4,3.4,0,0,0,.66,1.32c.22.22.66.66.88.66.22.22.88.22,1.54.22a2.42,2.42,0,0,0,1.32-.66c.22-.22.22-.66.66-.88,0-.66.22-1.1,0-1.54Z" transform="translate(-7.01 -191.23)"/><path id="path1054" class="cls-1" d="M491.87,290.87a17.79,17.79,0,0,1,.22-3.3,5.17,5.17,0,0,1,1.32-2c.66-.22,1.32-.66,2-.88a13.26,13.26,0,0,1,4.17,0,2.69,2.69,0,0,1,2,.88,10.27,10.27,0,0,1,1.32,2,12.46,12.46,0,0,1,.66,3.3l.22,7a5.23,5.23,0,0,1-2.64-.66,3.15,3.15,0,0,1-.88-2.2v-3.74a6.09,6.09,0,0,0-.22-2,2.42,2.42,0,0,0-.66-1.32c-.44-.44-.66-.22-.88-.66H496.7a.7.7,0,0,0-.65.66c-.22.22-.22.66-.66,1.32,0,.66-.22,1.32-.22,2v7.26a5.23,5.23,0,0,1-2.64-.66,3.15,3.15,0,0,1-.88-2.2Z" transform="translate(-7.01 -191.23)"/></g></g></g></svg>