<svg xmlns="http://www.w3.org/2000/svg" width="938" height="158.787" viewBox="0 0 938 158.787">
  <g id="logoWhite" transform="translate(0 0)">
    <path id="path3746" d="M57.665,121.872c.033-1.885.1-3.549.172-4.325a46.23,46.23,0,0,1,3.418-14.02,29.262,29.262,0,0,1,1.45-2.882c.1-.158.5-.888.886-1.622,1.787-3.368,2.5-4.489,3.57-5.62a53.652,53.652,0,0,0,5.66-7.716,24.855,24.855,0,0,1,2.806-3.748c.623-.734,1.38-1.658,1.682-2.055a29.491,29.491,0,0,1,3.626-3.536c5.246-4.709,14.19-12.219,21.632-18.162a22.844,22.844,0,0,0,3.868-3.639,38.557,38.557,0,0,0,2.68-4.145,22.571,22.571,0,0,1,3.561-5.108,5.782,5.782,0,0,1,4.547-1.683,9.521,9.521,0,0,1,3.953,1.157,13.863,13.863,0,0,1,5.633,5.273c1.132,2.374,1.041,5.986-.268,10.588a38.16,38.16,0,0,1-4.744,10.352,25.582,25.582,0,0,1-4.5,5.157c-2.221,2.054-5.693,5.412-5.693,5.507,0,.03,2.81.076,6.244.1s7.013.064,7.952.082,3.021.052,4.625.076,3.542.072,4.305.108c1.4.066,8.026.293,12.452.426,1.311.039,2.832.088,3.38.109,1.086.041,2.1.074,5.515.182,5.133.163,6.864.217,8.112.253.724.021,1.637.053,2.028.071s1.515.054,2.5.08l1.786.047.121-.172c.066-.094.3-.464.519-.82a23.83,23.83,0,0,1,4.291-5.114,22.64,22.64,0,0,1,5.124-3.491,23.162,23.162,0,0,1,7.292-2.293,33.488,33.488,0,0,1,6.441.028,22.359,22.359,0,0,1,7.079,2.254,23.29,23.29,0,0,1,10.59,10.661A22.426,22.426,0,0,1,214.4,94.28a22.846,22.846,0,0,1-1.629,9.427,23.714,23.714,0,0,1-11.3,12.425,22.262,22.262,0,0,1-10.512,2.5,21.976,21.976,0,0,1-7.385-1.188,23.651,23.651,0,0,1-13.23-11.282l-.362-.685-12.8-.018-12.8-.018.779.811a12.287,12.287,0,0,1,2.417,3.364,13.3,13.3,0,0,1,.655,9.733,9.578,9.578,0,0,1-4.451,5.279,1.756,1.756,0,0,0-.516.362,3.454,3.454,0,0,0,.317.588,12.93,12.93,0,0,1,1.494,8.876,10.04,10.04,0,0,1-1.458,3.79,9.118,9.118,0,0,1-4.7,3.467l-.705.234v.291a5.217,5.217,0,0,0,.283,1.1,9.133,9.133,0,0,1,.6,3.586,8.563,8.563,0,0,1-.469,3.232,8.728,8.728,0,0,1-4.841,5.3,15.446,15.446,0,0,1-4.825,1.233c-.637.057-7.291.073-23.411.054-20.768-.024-22.591-.036-23.411-.149a29.787,29.787,0,0,1-9.9-3.008,31.4,31.4,0,0,1-8.205-5.981c-.626-.617-1.226-1.179-1.334-1.247a.4.4,0,0,1-.2-.264,4.272,4.272,0,0,0-.6-.917c-2.558-3.306-3.838-7.492-4.161-13.608-.105-1.988-.138-6.175-.077-9.7Zm88.477-87.1c.267-.729.525-.957,2.975-2.615A73.409,73.409,0,0,1,182.76,19.953a56.484,56.484,0,0,1,7.507-.33,57.084,57.084,0,0,1,7.507.329A74.447,74.447,0,0,1,254.79,57.574a75.907,75.907,0,0,1-11.039,89.491A73.81,73.81,0,0,1,197.7,169.8a57.055,57.055,0,0,1-7.436.329,58.433,58.433,0,0,1-7.578-.33,73.16,73.16,0,0,1-33.053-11.868,17.909,17.909,0,0,1-3.16-2.34,2.229,2.229,0,0,1-.179-2.339c.189-.374.534-.714,3.065-3.017,1.569-1.427,2.977-2.656,3.129-2.731a2.707,2.707,0,0,1,1.6-.1,12.354,12.354,0,0,1,1.46.872,62.251,62.251,0,0,0,42.789,10.028A63.131,63.131,0,0,0,240.715,133.3a64.473,64.473,0,0,0,0-76.7,67.107,67.107,0,0,0-8.789-9.649,62.258,62.258,0,0,0-76.317-5.537,13.88,13.88,0,0,1-1.477.889,2.193,2.193,0,0,1-2.3-.534c-.232-.208-1.532-1.39-2.888-2.625-2.2-2.009-2.487-2.291-2.669-2.667a2.518,2.518,0,0,1-.141-1.7Zm23,20.8a2.707,2.707,0,0,1,.443-.68,3.972,3.972,0,0,1,1.471-.934,43.6,43.6,0,0,1,16.4-4.323c1.4-.094,5.414-.049,6.618.075A43.767,43.767,0,0,1,209.8,54.191a42.916,42.916,0,0,1,6.442,3.883,45.511,45.511,0,0,1-3.309,75.8,61.235,61.235,0,0,1-5.586,2.847,44.726,44.726,0,0,1-13.057,3.3,61.165,61.165,0,0,1-8.183,0,44.014,44.014,0,0,1-15.51-4.445,2.308,2.308,0,0,1-1.568-2.237,1.684,1.684,0,0,1,.214-.915c.194-.394.484-.68,3.134-3.093,1.606-1.462,3.081-2.753,3.278-2.867a2.064,2.064,0,0,1,1.842-.08c1.726.639,3.679,1.272,4.733,1.534a32.852,32.852,0,0,0,19.944-1.256,33.951,33.951,0,0,0,21.145-26.011,28.882,28.882,0,0,0,.455-5.767,29,29,0,0,0-.416-5.55,33.9,33.9,0,0,0-9.708-18.795,33.684,33.684,0,0,0-20.536-9.578,47.364,47.364,0,0,0-5.764,0,33.465,33.465,0,0,0-8.967,2.112,3.769,3.769,0,0,1-1.742.451,1.393,1.393,0,0,1-.973-.211c-.2-.119-1.679-1.41-3.282-2.869-3.323-3.026-3.3-3-3.336-3.978a2.423,2.423,0,0,1,.09-.882Z" transform="translate(-57.634 -19.276)" fill="#89ba17"/>
    <path id="path3740" d="M57.756,120.01a47.535,47.535,0,0,1,3.385-15.975,34.638,34.638,0,0,1,1.7-3.441c.371-.676,1.044-1.913,1.494-2.748a17.513,17.513,0,0,1,2.826-4.3,58.188,58.188,0,0,0,6-8.287,26.318,26.318,0,0,1,2.662-3.471c.573-.676,1.26-1.522,1.527-1.88a21.722,21.722,0,0,1,3.126-3.078c5.371-4.864,15.29-13.238,22.481-18.979,2.727-2.177,3.982-3.714,6.11-7.482,2.4-4.251,3.741-5.762,5.716-6.443a4.311,4.311,0,0,1,1.669-.266,8.23,8.23,0,0,1,4.1.914,15.056,15.056,0,0,1,5.655,4.844c1.079,1.7,1.354,4.463.786,7.892a37.3,37.3,0,0,1-6.783,15.438,27.02,27.02,0,0,1-3.119,3.29c-1.678,1.565-4.61,4.389-5.359,5.163a2.054,2.054,0,0,0-.477.6c.028.029,3.031.077,6.673.107,8.185.067,15.605.188,17.2.28,1.125.065,28.649.948,40.487,1.3,10.5.312,11.3.344,12.19.5a11.951,11.951,0,0,1,4.656,1.98,14.23,14.23,0,0,1,2.564,2.559,11.934,11.934,0,0,1,2.119,5.048,16.382,16.382,0,0,1-.032,4.515,9.11,9.11,0,0,1-8.108,7.31c-.581.056-7.187.064-22.878.027-13.965-.033-22.077-.026-22.1.017a5.031,5.031,0,0,0,.79.933,12.473,12.473,0,0,1,2.8,4.2,15.312,15.312,0,0,1,.778,2.882,20.258,20.258,0,0,1-.038,4.266,10.957,10.957,0,0,1-1.646,4.129,10.592,10.592,0,0,1-3.4,2.965c-.217.115-.394.25-.394.3a2.016,2.016,0,0,0,.247.483,15.582,15.582,0,0,1,1.069,2.175,13.839,13.839,0,0,1,.136,8.416,8.606,8.606,0,0,1-5.643,5.608l-.817.3-.021.289a2.951,2.951,0,0,0,.236,1.012c.142.4.342,1.064.446,1.482a7.351,7.351,0,0,1,.19,2.314,7,7,0,0,1-.2,2.35,8.86,8.86,0,0,1-1.692,3.548c-1.578,2-4.379,3.339-7.765,3.719-.507.057-7.248.073-23.582.056l-22.871-.024-1.065-.158a29.639,29.639,0,0,1-9.518-3.016,30.617,30.617,0,0,1-8.058-5.949,14.551,14.551,0,0,0-1.3-1.217.2.2,0,0,1-.128-.175,3.522,3.522,0,0,0-.526-.812c-2.81-3.622-4.031-7.846-4.3-14.88-.08-2.065-.079-8.687,0-10.63Zm88.225-84.985c.128-.878.31-1.062,2.619-2.647a72.993,72.993,0,0,1,66.235-8.49,75.287,75.287,0,0,1,43.559,42.178,76.686,76.686,0,0,1,4.949,39.048,75.922,75.922,0,0,1-15.847,37.276,75.119,75.119,0,0,1-21.626,18.515c-1.474.842-4.711,2.478-6.274,3.172a73.179,73.179,0,0,1-23.014,6,76.251,76.251,0,0,1-13.318,0,72.77,72.77,0,0,1-34.627-12.527c-2.051-1.411-2.193-1.531-2.452-2.067a1.557,1.557,0,0,1-.2-1.035c.047-.985,0-.931,3.2-3.852a41.87,41.87,0,0,1,3.17-2.757,1.7,1.7,0,0,1,.831-.164c.619,0,.871.109,2,.872a62.11,62.11,0,0,0,31.1,10.579c1.473.095,5.852.094,7.353,0a62.057,62.057,0,0,0,31.147-10.589,64.254,64.254,0,0,0,22.674-27.01,65.094,65.094,0,0,0-6.2-63.887c-1.237-1.753-2.545-3.425-4.075-5.206-.991-1.155-4.428-4.645-5.584-5.672A63.514,63.514,0,0,0,209.72,33.928a61.923,61.923,0,0,0-54.468,7.352,11.362,11.362,0,0,1-1.341.82,2.378,2.378,0,0,1-1.583-.067,33.267,33.267,0,0,1-3.17-2.741c-3-2.741-3.062-2.812-3.176-3.572a2.774,2.774,0,0,1,0-.695Z" transform="translate(-57.473 -19.528)" fill="#eef4f9"/>
    <path id="path3738" d="M259.94,121.5c.4-7.061,2.206-13.861,4.938-18.6.206-.357.64-1.152.964-1.766,1.672-3.167,2.5-4.475,3.512-5.524a45.14,45.14,0,0,0,4.931-6.622,36.42,36.42,0,0,1,3.584-4.9c.672-.793,1.413-1.7,1.647-2.018a53.367,53.367,0,0,1,5.645-5.3c5.346-4.7,14.439-12.28,19.96-16.643,2.761-2.182,4.058-3.759,6.226-7.57,1.941-3.413,3.133-4.951,4.507-5.82,2.291-1.448,5.515-1.022,8.729,1.155a13.622,13.622,0,0,1,4.087,4.223,8.806,8.806,0,0,1,.692,2.351,19.3,19.3,0,0,1-.144,4.757c-1.009,6.017-4.192,12.824-7.883,16.854-.356.389-1.4,1.411-2.327,2.271a62.376,62.376,0,0,0-5.6,5.532c.026.07.149.1.379.1.187,0,3.591.032,7.563.072,8.824.087,14.7.191,16.4.291,1.228.072,27.351.905,42.73,1.363,8.257.246,9.114.291,10.176.538a11.515,11.515,0,0,1,8.766,9.261,17.674,17.674,0,0,1,.068,4.261,9.135,9.135,0,0,1-7.342,7.476c-.639.122-1.807.127-23.282.1-21.362-.026-22.611-.021-22.656.1-.036.093.1.258.519.652a12.73,12.73,0,0,1,2.8,3.82,12.347,12.347,0,0,1,1.2,5.621c-.009,4.126-1.7,7.207-5,9.075a2.193,2.193,0,0,0-.62.436,6.283,6.283,0,0,0,.453.857,11.918,11.918,0,0,1,1.588,6.573c-.1,3.065-.907,5.233-2.572,6.925a9.278,9.278,0,0,1-3.667,2.265,5.409,5.409,0,0,0-.765.306c-.158.129-.1.532.231,1.5a10.152,10.152,0,0,1,.629,3.6,8.718,8.718,0,0,1-4.466,7.956,14.376,14.376,0,0,1-4.607,1.506l-.949.158-21.774.024c-22.124.024-23.428.012-25.33-.241a30.233,30.233,0,0,1-17.846-9.059,8.89,8.89,0,0,0-1.158-1.065c-.061,0-.125-.089-.148-.207a2.883,2.883,0,0,0-.47-.738,16.923,16.923,0,0,1-1.98-3.2c-1.288-2.659-1.925-5.4-2.28-9.8-.095-1.177-.143-11.448-.06-12.9Zm88.4-84.459c.156-.567.389-.829,1.363-1.534a73.335,73.335,0,0,1,24.833-11.463,74.42,74.42,0,0,1,13.413-2.067c1.909-.135,7.217-.113,9.251.038a72.407,72.407,0,0,1,21.81,4.874,74.175,74.175,0,0,1,22.667,14.1c1.306,1.172,4.675,4.58,5.856,5.926a75.083,75.083,0,0,1,18.578,42.9,61.829,61.829,0,0,1,.287,7.172,59.981,59.981,0,0,1-.287,7.1,75.453,75.453,0,0,1-27.406,51.45,73.276,73.276,0,0,1-61.23,15.078,73.114,73.114,0,0,1-27.311-11.827c-1.316-.932-1.273-.9-1.513-1.219a2.132,2.132,0,0,1,.1-2.534c.37-.441,5.594-5.118,5.866-5.251a2.414,2.414,0,0,1,.646-.187c.582-.07,1.036.116,2.2.9a62.446,62.446,0,0,0,31.542,10.542c1.921.107,6.516.047,8.327-.109a62.8,62.8,0,0,0,37.073-16.071c1.139-1.013,4.141-4.057,5.2-5.275A64.545,64.545,0,0,0,420.348,39.551a62.08,62.08,0,0,0-24.479-6.6c-1.564-.095-5.612-.1-7.136,0a62.328,62.328,0,0,0-31.238,10.487,15.737,15.737,0,0,1-1.349.831,2.31,2.31,0,0,1-1.506-.069c-.3-.145-5.34-4.636-5.852-5.218a2.218,2.218,0,0,1-.447-1.939Z" transform="translate(471.602 -13.332)" fill="rgba(58,170,4,0)"/>
    <path id="path3736" d="M259.942,121.7a52.673,52.673,0,0,1,.668-6.127,39.311,39.311,0,0,1,4.243-12.65c.315-.555.838-1.512,1.162-2.126a22.052,22.052,0,0,1,3.252-5.1,53.684,53.684,0,0,0,5.788-7.873,29.666,29.666,0,0,1,3.088-4.072c.538-.634,1.17-1.413,1.4-1.73a27.039,27.039,0,0,1,3.617-3.493c5.314-4.769,14.525-12.5,21.774-18.279.841-.671,1.861-1.545,2.267-1.942a24.854,24.854,0,0,0,4.137-5.768,38.235,38.235,0,0,1,2.791-4.287,6.663,6.663,0,0,1,3.293-2.213,8.065,8.065,0,0,1,3.242.066,13.435,13.435,0,0,1,6.139,3.693,7.552,7.552,0,0,1,2.543,5.4c.4,4.809-2.3,12.905-6.1,18.284a24.615,24.615,0,0,1-3.975,4.449,73,73,0,0,0-6,5.914c.02.109.4.124,4.4.168,9.454.1,17.318.221,18.607.275,1.49.063,33.5,1.106,37.535,1.223,1.39.04,2.911.089,3.38.109s3.08.1,5.8.179,5.393.177,5.941.218a10.991,10.991,0,0,1,5.589,1.955,14.356,14.356,0,0,1,2.961,2.985,11.892,11.892,0,0,1,2,7.316,8.911,8.911,0,0,1-1.459,4.9,9.071,9.071,0,0,1-5.673,3.917l-.641.153-22.79.021c-20.484.019-22.8.032-22.833.132-.029.076.159.3.6.718a12.576,12.576,0,0,1,3.469,5.626,14.147,14.147,0,0,1,.254,6.205,9.342,9.342,0,0,1-4.879,6.637,1.473,1.473,0,0,0-.519.39,1.962,1.962,0,0,0,.309.636,12.135,12.135,0,0,1,1.536,3.894,9.832,9.832,0,0,1,.164,2.451,10.922,10.922,0,0,1-.5,3.965,8,8,0,0,1-2.092,3.464,9.316,9.316,0,0,1-3.7,2.229c-.513.167-.719.267-.724.352a3.708,3.708,0,0,0,.295,1.508,9.172,9.172,0,0,1,.594,3.512,8.59,8.59,0,0,1-.453,3.13c-1.2,3.723-4.543,5.956-9.608,6.421-1.3.119-45.373.062-46.323-.061a29.692,29.692,0,0,1-10.176-3.032,30.54,30.54,0,0,1-5.591-3.635,34.816,34.816,0,0,1-3.262-3.034,2,2,0,0,0-.552-.488c-.131-.046-.2-.122-.2-.216a2.946,2.946,0,0,0-.49-.768c-2.7-3.44-3.934-7.452-4.276-13.958C259.906,132.149,259.883,122.58,259.942,121.7Zm88.429-84.789c.243-.659.588-.956,2.962-2.553a73.7,73.7,0,0,1,20.619-9.641A74.846,74.846,0,0,1,387.587,22c1.636-.122,7.726-.123,9.357,0a73.422,73.422,0,0,1,15.8,2.763A74.3,74.3,0,0,1,430.1,32.41a75.7,75.7,0,0,1,21.5,19.625,74.825,74.825,0,0,1,14.075,34.672,67.9,67.9,0,0,1,.625,9.175,67.739,67.739,0,0,1-.269,7.981,75.169,75.169,0,0,1-20.843,45.548,73.425,73.425,0,0,1-45.642,22.244,57.794,57.794,0,0,1-7.3.323,58.76,58.76,0,0,1-7.045-.292,73.011,73.011,0,0,1-30.882-10.247,59.785,59.785,0,0,1-5.42-3.693,1.886,1.886,0,0,1-.607-1.635c.068-.666.315-1,1.572-2.14.63-.571,1.882-1.709,2.783-2.531a24.6,24.6,0,0,1,1.919-1.641,2.216,2.216,0,0,1,1.472-.112,13.815,13.815,0,0,1,1.554.935,62.421,62.421,0,0,0,35.757,10.486,58.574,58.574,0,0,0,7.685-.6,63.18,63.18,0,0,0,33.679-15.94c1.2-1.1,3.9-3.851,4.928-5.033a64.208,64.208,0,0,0,15.47-34.513,53.189,53.189,0,0,0,.445-6.934,61.18,61.18,0,0,0-.871-11.982,64.44,64.44,0,0,0-14.659-31.191,63.222,63.222,0,0,0-40.094-21.691,49.535,49.535,0,0,0-7.614-.434,56.27,56.27,0,0,0-12.1,1.124A62.781,62.781,0,0,0,357.183,43.5a7.536,7.536,0,0,1-1.246.716,2.216,2.216,0,0,1-1.372-.136c-.154-.08-1.528-1.283-3.055-2.673-3.1-2.824-3.166-2.9-3.213-3.744a2.059,2.059,0,0,1,.073-.754Z" transform="translate(471.626 -13.276)" fill="rgba(137,186,23,0)"/>
    <g id="text4567" transform="translate(245.477 3.321)">
      <path id="path90" d="M136.192,115.047a47.777,47.777,0,0,1-12.676-1.555,50.483,50.483,0,0,1-9.507-3.628,35.851,35.851,0,0,1-6.476-4.405,12.426,12.426,0,0,1-2.894-3.5l.413-.389a11.527,11.527,0,0,1,2.756-2.721,5.8,5.8,0,0,1,2.894-.777,5.961,5.961,0,0,1,1.791.259q.964.259,2.067.648a11.211,11.211,0,0,1,2.2.777q1.1.389,2.48,1.037a56.763,56.763,0,0,0,6.476,1.943,58.691,58.691,0,0,0,8.956,1.037h1.516a31.563,31.563,0,0,0,8.68-1.037,19.4,19.4,0,0,0,5.787-2.85A11.283,11.283,0,0,0,153.829,96a10.368,10.368,0,0,0,.965-4.146,8.532,8.532,0,0,0-2.2-6.09,24.772,24.772,0,0,0-6.2-5.442,102.005,102.005,0,0,0-9.369-5.312q-5.374-2.721-11.436-5.83-9.92-5.312-14.743-11.79a19.806,19.806,0,0,1-4.134-13.863,20.9,20.9,0,0,1,3.169-9.458,22.962,22.962,0,0,1,6.476-6.608,26.66,26.66,0,0,1,8.818-3.887,39.113,39.113,0,0,1,9.921-1.3,47.478,47.478,0,0,1,14.743,2.073,61.241,61.241,0,0,1,10.747,4.535,38.5,38.5,0,0,1,8.681,6.478l-.276.389a12.337,12.337,0,0,1-2.756,2.591,5.4,5.4,0,0,1-3.031.907,10.166,10.166,0,0,1-3.72-.907q-1.1-.389-2.342-.777-1.1-.518-2.48-1.037a50.951,50.951,0,0,0-8.543-2.2,33.226,33.226,0,0,0-7.854-.777,31.122,31.122,0,0,0-3.858.259,20.549,20.549,0,0,0-4,.907A12.192,12.192,0,0,0,127.1,36.53a6.152,6.152,0,0,0-1.929,2.98,6.424,6.424,0,0,0,1.653,6.867,39.345,39.345,0,0,0,7.992,5.83q5.1,2.85,11.161,5.7a80.327,80.327,0,0,1,11.574,6.219q7.44,4.924,11.023,10.106a23.542,23.542,0,0,1,4.547,9.976,20.456,20.456,0,0,1-.551,9.458,27.69,27.69,0,0,1-3.858,8.033q-4.409,6.478-13.227,9.977a52.92,52.92,0,0,1-19.29,3.369Z" transform="translate(-104.639 -22.278)" fill="#eef4f9"/>
      <path id="path92" d="M143.652,101.154v6.478q.138,2.332.276,3.757.138,1.555.276,2.332-8.4,0-13.09-3.239-4.547-3.369-4.547-11.143l.276-54.806a20.838,20.838,0,0,1,2.342-10.365,17.72,17.72,0,0,1,6.476-6.608,27.57,27.57,0,0,1,9.645-3.628,85.607,85.607,0,0,1,12.263-1.555,57.311,57.311,0,0,1,13.641.907,42.321,42.321,0,0,1,13.365,4.794,30.189,30.189,0,0,1,10.334,9.2q4.271,5.83,4.685,14.77a32.617,32.617,0,0,1-1.515,11.272,27.614,27.614,0,0,1-5.649,10.365,31.164,31.164,0,0,1-10.609,7.774A39.126,39.126,0,0,1,165.7,84.44a67.7,67.7,0,0,1-8.68-.518q-3.858-.518-6.889-1.166a51.9,51.9,0,0,1-6.476-1.814Zm19.014-29.411q8.818,0,14.33-4.923,5.649-4.923,5.236-14.77a17.813,17.813,0,0,0-2.48-8.681,14.718,14.718,0,0,0-5.512-5.442,21.141,21.141,0,0,0-7.716-2.591,38.719,38.719,0,0,0-8.956-.259,25.021,25.021,0,0,0-6.751,1.425,12.978,12.978,0,0,0-4.271,2.332,7.776,7.776,0,0,0-2.2,2.98,10.774,10.774,0,0,0-.551,3.369v22.8A40.232,40.232,0,0,0,149.3,69.8q2.618.648,5.925,1.3A40.279,40.279,0,0,0,162.667,71.743Z" transform="translate(-47.265 -22.249)" fill="#eef4f9"/>
      <path id="path94" d="M237.3,92.084q3.169-13.6,5.925-25.265,1.24-4.923,2.342-9.977,1.24-5.053,2.342-9.458t1.929-7.9q.827-3.5,1.378-5.312,1.516-5.7,4.823-8.033a15.738,15.738,0,0,1,6.614-2.85,21.185,21.185,0,0,1,8.267.648q-.138.648-.413,1.684-.276.907-.689,2.2-.275,1.166-.689,2.98-4.271,18.139-7.992,33.3l-3.307,12.956q-1.516,6.349-3.031,11.92-1.378,5.442-2.618,9.458t-1.929,5.7a12.145,12.145,0,0,1-5.925,6.608,24.341,24.341,0,0,1-7.854,2.462,37.609,37.609,0,0,1-9.783-.259q-3.031-12.956-5.512-24.876-1.1-5.053-2.342-10.365-1.1-5.312-2.2-10.236-.965-4.924-1.929-9.2-.826-4.405-1.378-7.515-.827,4.146-1.791,9.458T209.47,71.354q-.964,5.7-2.067,11.4-1.1,5.571-2.2,10.365-.964,4.794-1.929,8.422a19.631,19.631,0,0,1-1.791,4.794,12.171,12.171,0,0,1-6.063,5.312,27.308,27.308,0,0,1-7.578,1.684,37.314,37.314,0,0,1-9.231-.389q-5.1-20.212-9.508-37.056-1.929-7.126-3.72-14.252-1.791-7.256-3.445-13.345-1.516-6.219-2.755-10.754-1.1-4.664-1.654-6.737-.551-1.814-.827-2.98-.275-1.3-.551-2.2-.276-1.037-.414-1.684a20.384,20.384,0,0,1,8.129-.648,15.738,15.738,0,0,1,6.614,2.85q3.307,2.332,4.96,8.033.551,1.814,1.378,5.312t1.929,7.9q1.1,4.405,2.2,9.458,1.24,5.053,2.48,9.977,2.756,11.661,5.925,25.265Q192.384,76.666,195,63.839l2.2-10.883q1.24-5.442,2.342-9.977,1.1-4.664,1.929-8.033a33.261,33.261,0,0,1,1.653-4.794,11.52,11.52,0,0,1,4.96-5.7,17.446,17.446,0,0,1,6.2-1.814,20.779,20.779,0,0,1,7.165.777,53.934,53.934,0,0,1,1.515,5.183q1.1,3.628,2.342,8.81,1.24,5.053,2.48,11.143,1.378,5.96,2.756,12.05,3.169,14.252,6.752,31.484Z" transform="translate(29.051 -21.471)" fill="#89ba17"/>
      <path id="path96" d="M255.1,99.584v.907a12.219,12.219,0,0,1-1.654,6.867,8.673,8.673,0,0,1-4.271,3.887,14.869,14.869,0,0,1-6.063,1.684q-3.307.13-6.063.259a98.123,98.123,0,0,1-21.632-1.166,33.12,33.12,0,0,1-14.881-6.737,29.734,29.734,0,0,1-8.681-13.345q-2.756-8.551-2.756-21.378V46.073q0-8.81,2.894-13.863a13.826,13.826,0,0,1,3.583-4.146,19.221,19.221,0,0,1,4.823-2.591,26.05,26.05,0,0,1,3.72-1.037,28.972,28.972,0,0,1,4.134-.777q2.894-.259,6.063-.389t6.614-.13h12.125q8.818,0,12.676-.259t4.96-.389h1.1v.777a12.219,12.219,0,0,1-1.654,6.867,11.565,11.565,0,0,1-4.271,4.016,17.077,17.077,0,0,1-5.925,1.555q-3.031.259-6.2.259H210.324q-.827.13-1.378.259a3.165,3.165,0,0,0-.964.389,2.865,2.865,0,0,0-1.24,1.037,3.348,3.348,0,0,0-.689,1.814,19.025,19.025,0,0,0-.138,2.462l.414,15.807h33.9a12.718,12.718,0,0,1-3.445,9.329q-3.444,3.5-9.783,3.5H206.191a52.128,52.128,0,0,0,1.24,14.511,19.981,19.981,0,0,0,4.822,9.07,19.465,19.465,0,0,0,8.818,4.794,52.773,52.773,0,0,0,13.09,1.425q8.956,0,13.778-.259,4.961-.259,6.063-.389h.275Z" transform="translate(116.37 -21.715)" fill="#eef4f9"/>
      <path id="path98" d="M248.231,115.083a51.947,51.947,0,0,1-16.121-2.332,31.846,31.846,0,0,1-12.263-7.515,34.435,34.435,0,0,1-7.854-13.216,61.926,61.926,0,0,1-2.756-19.694V45.247q0-8.81,2.894-13.863a15.443,15.443,0,0,1,8.4-6.867,28.163,28.163,0,0,1,7.854-1.684,47.784,47.784,0,0,1,6.339-.389q3.582-.13,6.062-.13a35.641,35.641,0,0,1,12.4,1.943,24.964,24.964,0,0,1,8.68,4.923,18.942,18.942,0,0,1,5.236,7.126,20.452,20.452,0,0,1,1.791,8.422,18.525,18.525,0,0,1-1.654,7.774,22.668,22.668,0,0,1-4.685,6.478,32.126,32.126,0,0,1,7.578,3.757,26.313,26.313,0,0,1,10.334,13.216,28.153,28.153,0,0,1,1.515,9.458,26.036,26.036,0,0,1-2.48,11.143,28.906,28.906,0,0,1-6.752,9.458,33.144,33.144,0,0,1-10.609,6.608,37.435,37.435,0,0,1-13.917,2.462ZM226.186,56.26H237.9q7.441,0,11.574-2.591,4.271-2.591,4.271-8.81a9.951,9.951,0,0,0-1.24-5.183,8.943,8.943,0,0,0-3.031-3.5,11.465,11.465,0,0,0-4.134-2.073,17.024,17.024,0,0,0-4.547-.648h-4.134a18.008,18.008,0,0,0-4.823.648,9.811,9.811,0,0,0-4,1.814,4.635,4.635,0,0,0-1.654,3.887Zm22.046,46a19.99,19.99,0,0,0,7.578-1.3,14.618,14.618,0,0,0,5.1-3.628A13.257,13.257,0,0,0,263.8,92.02a22.183,22.183,0,0,0,.965-6.608,18.7,18.7,0,0,0-2.067-9.329,14.55,14.55,0,0,0-5.374-5.7,19.878,19.878,0,0,0-7.165-2.85,31.8,31.8,0,0,0-7.44-.648q-3.307.13-6.338.13h-5.236q-2.618,0-4.96-.13v5.571a56.529,56.529,0,0,0,1.1,14.511,21.431,21.431,0,0,0,4.271,9.07,15.991,15.991,0,0,0,7.027,4.794A30.389,30.389,0,0,0,248.231,102.256Z" transform="translate(169.049 -22.184)" fill="#eef4f9"/>
      <g id="text953" transform="translate(1.321 116.261)">
        <path id="path1006" d="M129.655,54.5q-2.1,6.145-3.895,11.246-.758,2.2-1.554,4.367-.759,2.164-1.452,4.019-.656,1.855-1.212,3.246-.52,1.353-.8,1.932a3.679,3.679,0,0,1-1.436,1.7,4.194,4.194,0,0,1-1.576.541,3.972,3.972,0,0,1-1.816-.193L105,54.5a8.179,8.179,0,0,1,1.771-.116,4.615,4.615,0,0,1,1.708.309,3.877,3.877,0,0,1,1.426.889,4.232,4.232,0,0,1,1.111,1.584q.041.155.358,1,.353.812.828,2.087.512,1.237,1.1,2.783t1.224,3.13q1.461,3.749,3.314,8.386,1.584-4.637,2.858-8.386.551-1.585,1.067-3.13l.928-2.783q.449-1.275.724-2.087.311-.85.381-1a4.174,4.174,0,0,1,1-1.584,3.956,3.956,0,0,1,1.419-.889,4.392,4.392,0,0,1,1.655-.309,8.258,8.258,0,0,1,1.777.116Z" transform="translate(-105.004 -54.188)" fill="#89ba17"/>
        <path id="path1008" d="M125.195,59.558a9,9,0,0,1,1.847,2.937,9.722,9.722,0,0,1,.755,3.594,10.861,10.861,0,0,1-.5,3.633,8.684,8.684,0,0,1-1.591,2.9,7.391,7.391,0,0,1-2.574,2.01,7.579,7.579,0,0,1-3.382.734,7.4,7.4,0,0,1-3.234-.734,9.043,9.043,0,0,1-2.674-2.01,10.019,10.019,0,0,1-1.846-2.9,10.538,10.538,0,0,1-.719-3.633,11.175,11.175,0,0,1,.465-3.594,8.611,8.611,0,0,1,1.59-2.937,7.487,7.487,0,0,1,2.537-2.01,7.814,7.814,0,0,1,3.419-.734,7.24,7.24,0,0,1,3.233.734A8.451,8.451,0,0,1,125.195,59.558Zm-5.527,12.483a3.213,3.213,0,0,0,1.1-.232,2.972,2.972,0,0,0,1.234-.889,5.165,5.165,0,0,0,.952-1.816,9.206,9.206,0,0,0,.331-3.014,9.4,9.4,0,0,0-.482-3.014,5.031,5.031,0,0,0-1.043-1.816,3.184,3.184,0,0,0-1.279-.889,3.308,3.308,0,0,0-1.115-.232,3.521,3.521,0,0,0-1.14.232,3.039,3.039,0,0,0-1.2.889,4.728,4.728,0,0,0-.952,1.816,9.205,9.205,0,0,0-.331,3.014,9.392,9.392,0,0,0,.482,3.014,5.5,5.5,0,0,0,1.043,1.816,3.259,3.259,0,0,0,1.242.889A3.624,3.624,0,0,0,119.668,72.041Z" transform="translate(-88.601 -47.771)" fill="#89ba17"/>
        <path id="path1010" d="M125.5,70.418a1.255,1.255,0,0,0-.4-1.082,3.869,3.869,0,0,0-1.241-.85q-.786-.425-1.87-.889A15.655,15.655,0,0,1,119.7,66.36a5.867,5.867,0,0,1-1.51-1.275,5.718,5.718,0,0,1-.854-1.623,5.561,5.561,0,0,1-.266-1.778,5.162,5.162,0,0,1,.361-1.816,4.318,4.318,0,0,1,.925-1.43,4.862,4.862,0,0,1,1.27-.927,5.57,5.57,0,0,1,1.465-.541,6.654,6.654,0,0,1,1.363-.155h.443a8.575,8.575,0,0,1,3.61,1,9.218,9.218,0,0,1,2.831,2.357l.114.116-.107.155a2.632,2.632,0,0,1-.793.812,1.6,1.6,0,0,1-.917.271,2.688,2.688,0,0,1-1-.193q-.486-.232-1.046-.464a12.584,12.584,0,0,0-1.343-.5,3.355,3.355,0,0,0-1.225-.232,1.674,1.674,0,0,0-1.21.387,1.309,1.309,0,0,0-.459.85,1.472,1.472,0,0,0,.474,1.237,5.73,5.73,0,0,0,1.537.889q1.158.5,2.467,1.121a9.175,9.175,0,0,1,2.328,1.469,5.676,5.676,0,0,1,1.568,2.087,4.685,4.685,0,0,1,.184,2.937,6.006,6.006,0,0,1-.592,1.469,4.731,4.731,0,0,1-1.223,1.353,6.083,6.083,0,0,1-1.9,1,7.234,7.234,0,0,1-2.613.425,2.44,2.44,0,0,1-.481-.039,8.624,8.624,0,0,1-3.535-.966,8.952,8.952,0,0,1-2.9-2.357l-.114-.116.107-.155a1.989,1.989,0,0,1,.394-.5q.217-.193.4-.348a1.865,1.865,0,0,1,.881-.232,2.305,2.305,0,0,1,1,.232q.485.193,1.045.425a6.932,6.932,0,0,0,1.157.464,8.119,8.119,0,0,0,1.448.271,2.6,2.6,0,0,0,1.871-.541A1.808,1.808,0,0,0,125.5,70.418Z" transform="translate(-74.788 -47.771)" fill="#89ba17"/>
        <path id="path1012" d="M125.388,65.112a6.992,6.992,0,0,1,2.23-.966,9.7,9.7,0,0,1,2.615-.348,11.614,11.614,0,0,1,3.673.58,7.759,7.759,0,0,0-.534-2.126,3.445,3.445,0,0,0-1.485-1.739,2.83,2.83,0,0,0-.82-.271,3.559,3.559,0,0,0-.964-.116H129.7a4.8,4.8,0,0,0-1.03.193,7.7,7.7,0,0,0-1.027.309q-.513.193-1.026.348a4.521,4.521,0,0,1-1,.116,2.306,2.306,0,0,1-1-.232,2.339,2.339,0,0,1-.8-.889l-.078-.155.071-.116a8.414,8.414,0,0,1,5.8-2.86,1.509,1.509,0,0,1,.295-.039h.333a7.345,7.345,0,0,1,3.121.657,7.531,7.531,0,0,1,2.483,1.739,9.7,9.7,0,0,1,2.338,6.3l.008.309a10.116,10.116,0,0,1-1.8,6.531,7.6,7.6,0,0,1-5.248,2.976,2.562,2.562,0,0,1-.443.039h-.481a9.151,9.151,0,0,1-1.63-.155,5.749,5.749,0,0,1-1.676-.5,6.881,6.881,0,0,1-1.574-.889,5.07,5.07,0,0,1-1.219-1.469,5.409,5.409,0,0,1-.808-2.744l-.006-.232a4.809,4.809,0,0,1,.529-2.512,4.586,4.586,0,0,1,1.546-1.739Zm7.7,1.855q-.482-.077-1.113-.155a9.433,9.433,0,0,0-1.222-.077,6.231,6.231,0,0,0-1,.077,3.16,3.16,0,0,0-.882.193,2.669,2.669,0,0,0-1.38.966,1.816,1.816,0,0,0-.282.541,2.219,2.219,0,0,0-.132.618,1.21,1.21,0,0,0-.028.348,3.715,3.715,0,0,0,.132.85,2.1,2.1,0,0,0,.464.812,2.418,2.418,0,0,0,.866.657,3.816,3.816,0,0,0,1.559.271,1.873,1.873,0,0,0,.442-.039,3.078,3.078,0,0,0,1.8-.618,2.546,2.546,0,0,0,.615-.541,4.29,4.29,0,0,0,.425-.734,4.95,4.95,0,0,0,.517-1.507,7.6,7.6,0,0,0,.112-1.43H133.9c0-.026-.013-.039-.038-.039q-.149-.039-.335-.077t-.446-.116Z" transform="translate(-57.103 -47.799)" fill="#89ba17"/>
        <path id="path1014" d="M128.014,66.089a9.962,9.962,0,0,1,.538-3.594,9.27,9.27,0,0,1,1.7-2.937,7.99,7.99,0,0,1,2.537-2.01,7.243,7.243,0,0,1,3.234-.734,7.814,7.814,0,0,1,3.418.734,7.934,7.934,0,0,1,2.674,2.01,9.171,9.171,0,0,1,1.737,2.937,10.782,10.782,0,0,1,.681,3.594,9.757,9.757,0,0,1-.574,3.633,8.51,8.51,0,0,1-1.7,2.9,7.873,7.873,0,0,1-2.574,2.01,7.014,7.014,0,0,1-3.2.734,7.786,7.786,0,0,1-3.755-.889l.184,5.874q.029,1.159.048,1.894.055.734.1,1.159.049.464.091.7a5.5,5.5,0,0,1-3.536-1,4.244,4.244,0,0,1-1.266-3.324Zm8.39,5.952a3.215,3.215,0,0,0,1.1-.232,3.112,3.112,0,0,0,1.235-.85,5.166,5.166,0,0,0,.953-1.816,9.575,9.575,0,0,0,.33-3.053,9.4,9.4,0,0,0-.482-3.014A5.05,5.05,0,0,0,138.5,61.3a3.186,3.186,0,0,0-1.279-.889,3.309,3.309,0,0,0-1.114-.232,3.522,3.522,0,0,0-1.14.232,3.037,3.037,0,0,0-1.2.889,4.741,4.741,0,0,0-.953,1.778,9.209,9.209,0,0,0-.331,3.014,9.758,9.758,0,0,0,.483,3.053,5.5,5.5,0,0,0,1.043,1.816,3.41,3.41,0,0,0,1.241.85A3.625,3.625,0,0,0,136.4,72.041Z" transform="translate(-44.809 -47.771)" fill="#89ba17"/>
        <path id="path1016" d="M133.343,66.089a9.962,9.962,0,0,1,.538-3.594,9.274,9.274,0,0,1,1.7-2.937,7.991,7.991,0,0,1,2.537-2.01,7.243,7.243,0,0,1,3.234-.734,7.814,7.814,0,0,1,3.418.734,7.937,7.937,0,0,1,2.674,2.01,9.18,9.18,0,0,1,1.736,2.937,10.784,10.784,0,0,1,.681,3.594,9.757,9.757,0,0,1-.574,3.633,8.5,8.5,0,0,1-1.7,2.9,7.866,7.866,0,0,1-2.573,2.01,7.015,7.015,0,0,1-3.2.734,7.785,7.785,0,0,1-3.755-.889l.184,5.874q.029,1.159.048,1.894.055.734.1,1.159.048.464.091.7a5.5,5.5,0,0,1-3.536-1,4.244,4.244,0,0,1-1.266-3.324Zm8.39,5.952a3.216,3.216,0,0,0,1.1-.232,3.112,3.112,0,0,0,1.235-.85,5.162,5.162,0,0,0,.952-1.816,9.567,9.567,0,0,0,.33-3.053,9.392,9.392,0,0,0-.482-3.014,5.048,5.048,0,0,0-1.042-1.778,3.184,3.184,0,0,0-1.279-.889,3.309,3.309,0,0,0-1.114-.232,3.524,3.524,0,0,0-1.14.232,3.039,3.039,0,0,0-1.2.889,4.741,4.741,0,0,0-.953,1.778,9.212,9.212,0,0,0-.331,3.014,9.763,9.763,0,0,0,.483,3.053,5.5,5.5,0,0,0,1.043,1.816,3.41,3.41,0,0,0,1.241.85A3.625,3.625,0,0,0,141.733,72.041Z" transform="translate(-30.865 -47.771)" fill="#89ba17"/>
        <path id="path1018" d="M146.535,77.788a5.351,5.351,0,0,1-.1,1.816,3.4,3.4,0,0,1-.705,1.353,2.388,2.388,0,0,1-1.72.7,3.866,3.866,0,0,1-2-.271,4.029,4.029,0,0,1-1.467-1,4.79,4.79,0,0,1-.889-1.546,6.68,6.68,0,0,1-.3-1.855l-.471-18.821q-.066-1.159-.12-1.855-.018-.734-.066-1.159-.049-.464-.092-.734a5.5,5.5,0,0,1,3.536,1,4.122,4.122,0,0,1,1.3,3.285l.446,17.816a2.242,2.242,0,0,0,.367,1.353,1.348,1.348,0,0,0,.788.464,1.734,1.734,0,0,0,.885-.077,1.378,1.378,0,0,0,.617-.464Z" transform="translate(-17.111 -54.098)" fill="#89ba17"/>
        <path id="path1020" d="M145.851,58.07a2.309,2.309,0,0,1-2.11,1.353,2.4,2.4,0,0,1-1.115-.271,2.489,2.489,0,0,1-.872-.889,2.731,2.731,0,0,1-.327-1.237,2.551,2.551,0,0,1,.3-1.314,2.3,2.3,0,0,1,.9-1,2.156,2.156,0,0,1,1.21-.386,2.442,2.442,0,0,1,1.989,1.2,2.729,2.729,0,0,1,.327,1.237,2.687,2.687,0,0,1-.3,1.314Zm3.381,19.941a1.377,1.377,0,0,1-.617.464,1.734,1.734,0,0,1-.885.077,1.349,1.349,0,0,1-.788-.464,2.241,2.241,0,0,1-.366-1.353l-.231-9.236q-.029-1.159-.046-1.855.018-.734.045-1.159.025-.464.056-.734a5.134,5.134,0,0,0-3.449,1,4.053,4.053,0,0,0-1.1,3.324l.191,9.12a6.67,6.67,0,0,0,.3,1.855,4.79,4.79,0,0,0,.889,1.546,4.031,4.031,0,0,0,1.467,1,3.866,3.866,0,0,0,2,.271,2.387,2.387,0,0,0,1.719-.7,3.393,3.393,0,0,0,.705-1.353A5.35,5.35,0,0,0,149.233,78.012Z" transform="translate(-9.705 -54.322)" fill="#89ba17"/>
        <path id="path1022" d="M152.122,60.1a3.523,3.523,0,0,0-1.14.232,3.037,3.037,0,0,0-1.2.889,4.726,4.726,0,0,0-.952,1.816,9.2,9.2,0,0,0-.331,3.014,9.763,9.763,0,0,0,.483,3.053,5.508,5.508,0,0,0,1.043,1.816,3.412,3.412,0,0,0,1.241.85,3.625,3.625,0,0,0,1.151.232,6.806,6.806,0,0,0,1.475-.155,10.863,10.863,0,0,0,1.248-.348q.549-.232,1.025-.386a2.809,2.809,0,0,1,.993-.193,1.98,1.98,0,0,1,.968.271,3.651,3.651,0,0,1,.872.889l.078.155-.108.116a8.671,8.671,0,0,1-2.864,2.2,8.272,8.272,0,0,1-3.565.773,7.478,7.478,0,0,1-3.271-.734A9.357,9.357,0,0,1,146.6,72.62a10.024,10.024,0,0,1-1.846-2.9,11.024,11.024,0,0,1-.218-7.227,9.063,9.063,0,0,1,1.589-2.976,7.716,7.716,0,0,1,2.538-1.971,7.579,7.579,0,0,1,3.382-.734,8.277,8.277,0,0,1,3.642.812,8.844,8.844,0,0,1,2.974,2.164l.114.116-.107.155a1.96,1.96,0,0,1-.828.889,1.44,1.44,0,0,1-.917.271,3.519,3.519,0,0,1-1-.155q-.485-.193-1.045-.386a7.511,7.511,0,0,0-1.266-.386A5.6,5.6,0,0,0,152.122,60.1Z" transform="translate(-2.903 -47.771)" fill="#89ba17"/>
        <path id="path1024" d="M150.915,65.112a6.988,6.988,0,0,1,2.23-.966,9.7,9.7,0,0,1,2.615-.348,11.614,11.614,0,0,1,3.673.58,7.766,7.766,0,0,0-.534-2.126,3.445,3.445,0,0,0-1.485-1.739,2.831,2.831,0,0,0-.82-.271,3.561,3.561,0,0,0-.964-.116h-.407a4.806,4.806,0,0,0-1.03.193,7.7,7.7,0,0,0-1.027.309q-.512.193-1.026.348a4.523,4.523,0,0,1-.995.116,2.307,2.307,0,0,1-1-.232,2.339,2.339,0,0,1-.8-.889l-.078-.155.071-.116a8.414,8.414,0,0,1,5.8-2.86,1.509,1.509,0,0,1,.295-.039h.333a7.345,7.345,0,0,1,3.121.657,7.529,7.529,0,0,1,2.483,1.739,9.7,9.7,0,0,1,2.338,6.3l.008.309a10.117,10.117,0,0,1-1.8,6.531,7.6,7.6,0,0,1-5.247,2.976,2.567,2.567,0,0,1-.443.039h-.481a9.149,9.149,0,0,1-1.63-.155,5.746,5.746,0,0,1-1.676-.5,6.88,6.88,0,0,1-1.574-.889,5.072,5.072,0,0,1-1.219-1.469,5.41,5.41,0,0,1-.808-2.744l-.006-.232a4.807,4.807,0,0,1,.528-2.512,4.586,4.586,0,0,1,1.546-1.739Zm7.7,1.855q-.482-.077-1.113-.155a9.432,9.432,0,0,0-1.221-.077,6.231,6.231,0,0,0-1,.077,3.165,3.165,0,0,0-.882.193,2.669,2.669,0,0,0-1.38.966,1.815,1.815,0,0,0-.282.541,2.227,2.227,0,0,0-.133.618,1.232,1.232,0,0,0-.028.348,3.717,3.717,0,0,0,.133.85,2.094,2.094,0,0,0,.463.812,2.419,2.419,0,0,0,.867.657,3.813,3.813,0,0,0,1.559.271,1.876,1.876,0,0,0,.442-.039,3.078,3.078,0,0,0,1.8-.618,2.547,2.547,0,0,0,.615-.541,4.288,4.288,0,0,0,.425-.734,4.95,4.95,0,0,0,.517-1.507,7.6,7.6,0,0,0,.112-1.43h-.074c0-.026-.013-.039-.038-.039q-.149-.039-.334-.077t-.446-.116Z" transform="translate(9.69 -47.799)" fill="#89ba17"/>
        <path id="path1026" d="M164.015,76.017a1.19,1.19,0,0,0,.044.27,2.538,2.538,0,0,1,.088.58,2.728,2.728,0,0,1-.263,1.275,2.766,2.766,0,0,1-.79.927,4,4,0,0,1-2.494.773,5.5,5.5,0,0,1-2.417-.58A6.762,6.762,0,0,1,156,77.525a9.433,9.433,0,0,1-1.624-2.86,13.546,13.546,0,0,1-.656-4.058l-.242-11.169a4.053,4.053,0,0,1,1.1-3.324,5.071,5.071,0,0,1,3.412-1q-.03.271-.056.734-.026.425-.045,1.159.017.7.046,1.855l.1,2.435h4.952a3.959,3.959,0,0,1-.854,2.783,3.239,3.239,0,0,1-2.6,1.043h-1.4l.1,5.488a12.5,12.5,0,0,0,.327,2.744,5.983,5.983,0,0,0,.82,1.778,3.192,3.192,0,0,0,2.62,1.314,4.7,4.7,0,0,0,1.326-.193q.367-.116.7-.232Z" transform="translate(21.811 -52.25)" fill="#89ba17"/>
        <path id="path1028" d="M161.259,58.07a2.308,2.308,0,0,1-2.11,1.353,2.4,2.4,0,0,1-1.115-.271,2.489,2.489,0,0,1-.872-.889,2.733,2.733,0,0,1-.326-1.237,2.548,2.548,0,0,1,.3-1.314,2.3,2.3,0,0,1,.9-1,2.156,2.156,0,0,1,1.21-.386,2.442,2.442,0,0,1,1.989,1.2,2.731,2.731,0,0,1,.327,1.237,2.688,2.688,0,0,1-.3,1.314Zm3.382,19.941a1.375,1.375,0,0,1-.617.464,1.735,1.735,0,0,1-.885.077,1.349,1.349,0,0,1-.788-.464,2.241,2.241,0,0,1-.367-1.353l-.231-9.236q-.029-1.159-.046-1.855.019-.734.045-1.159.025-.464.056-.734a5.135,5.135,0,0,0-3.449,1,4.053,4.053,0,0,0-1.1,3.324l.191,9.12a6.68,6.68,0,0,0,.305,1.855,4.787,4.787,0,0,0,.889,1.546,4.031,4.031,0,0,0,1.467,1,3.867,3.867,0,0,0,2,.271,2.387,2.387,0,0,0,1.719-.7,3.392,3.392,0,0,0,.705-1.353,5.344,5.344,0,0,0,.1-1.816Z" transform="translate(30.612 -54.322)" fill="#89ba17"/>
        <path id="path1030" d="M173.355,59.558A9.01,9.01,0,0,1,175.2,62.5a9.722,9.722,0,0,1,.755,3.594,10.863,10.863,0,0,1-.5,3.633,8.676,8.676,0,0,1-1.59,2.9,7.4,7.4,0,0,1-2.574,2.01,7.579,7.579,0,0,1-3.382.734,7.4,7.4,0,0,1-3.234-.734A9.042,9.042,0,0,1,162,72.62a10.027,10.027,0,0,1-1.847-2.9,10.54,10.54,0,0,1-.719-3.633A11.172,11.172,0,0,1,159.9,62.5a8.606,8.606,0,0,1,1.59-2.937,7.487,7.487,0,0,1,2.537-2.01,7.815,7.815,0,0,1,3.419-.734,7.241,7.241,0,0,1,3.234.734A8.45,8.45,0,0,1,173.355,59.558Zm-5.527,12.483a3.213,3.213,0,0,0,1.1-.232,2.972,2.972,0,0,0,1.235-.889,5.166,5.166,0,0,0,.952-1.816,9.2,9.2,0,0,0,.331-3.014,9.386,9.386,0,0,0-.482-3.014,5.029,5.029,0,0,0-1.043-1.816,3.183,3.183,0,0,0-1.279-.889,3.307,3.307,0,0,0-1.115-.232,3.521,3.521,0,0,0-1.14.232,3.038,3.038,0,0,0-1.2.889,4.727,4.727,0,0,0-.952,1.816,9.2,9.2,0,0,0-.331,3.014,9.389,9.389,0,0,0,.482,3.014,5.5,5.5,0,0,0,1.043,1.816,3.258,3.258,0,0,0,1.242.889A3.625,3.625,0,0,0,167.828,72.041Z" transform="translate(37.413 -47.771)" fill="#89ba17"/>
        <path id="path1032" d="M164.783,65.2a10.591,10.591,0,0,1,.6-4.212,6.786,6.786,0,0,1,1.783-2.589,5.91,5.91,0,0,1,2.519-1.237,11.967,11.967,0,0,1,5.728,0,6.259,6.259,0,0,1,2.618,1.237,6.564,6.564,0,0,1,1.95,2.589,10.385,10.385,0,0,1,.845,4.212l.391,9.739a5.435,5.435,0,0,1-3.5-1,4.122,4.122,0,0,1-1.3-3.285l-.1-5.449a8.28,8.28,0,0,0-.4-2.589,3.844,3.844,0,0,0-.852-1.546,2.628,2.628,0,0,0-1.165-.773,4.3,4.3,0,0,0-1.261-.193,4.207,4.207,0,0,0-1.252.193,2.492,2.492,0,0,0-1.089.773,4.268,4.268,0,0,0-.774,1.546,9.062,9.062,0,0,0-.231,2.589l.15,5.99q.066,1.159.084,1.894.055.734.1,1.159.049.464.091.7a5.5,5.5,0,0,1-3.536-1,4.122,4.122,0,0,1-1.3-3.285Z" transform="translate(51.395 -47.771)" fill="#89ba17"/>
        <path id="path1034" d="M178.966,70.418a1.255,1.255,0,0,0-.4-1.082,3.869,3.869,0,0,0-1.241-.85q-.787-.425-1.87-.889a15.64,15.64,0,0,1-2.285-1.237,5.868,5.868,0,0,1-1.51-1.275,5.712,5.712,0,0,1-.853-1.623,5.558,5.558,0,0,1-.266-1.778,5.168,5.168,0,0,1,.361-1.816,4.32,4.32,0,0,1,.925-1.43,4.853,4.853,0,0,1,1.27-.927,5.571,5.571,0,0,1,1.465-.541,6.656,6.656,0,0,1,1.364-.155h.443a8.575,8.575,0,0,1,3.61,1,9.222,9.222,0,0,1,2.831,2.357l.114.116-.107.155a2.633,2.633,0,0,1-.793.812,1.6,1.6,0,0,1-.917.271,2.688,2.688,0,0,1-1-.193q-.486-.232-1.046-.464a12.558,12.558,0,0,0-1.343-.5,3.354,3.354,0,0,0-1.225-.232,1.673,1.673,0,0,0-1.21.387,1.308,1.308,0,0,0-.459.85,1.472,1.472,0,0,0,.474,1.237,5.728,5.728,0,0,0,1.538.889q1.158.5,2.467,1.121a9.179,9.179,0,0,1,2.328,1.469,5.671,5.671,0,0,1,1.567,2.087,4.683,4.683,0,0,1,.184,2.937,6,6,0,0,1-.591,1.469,4.734,4.734,0,0,1-1.223,1.353,6.085,6.085,0,0,1-1.9,1,7.234,7.234,0,0,1-2.613.425,2.438,2.438,0,0,1-.481-.039,8.622,8.622,0,0,1-3.535-.966,8.952,8.952,0,0,1-2.9-2.357l-.114-.116.107-.155a1.987,1.987,0,0,1,.394-.5q.217-.193.4-.348a1.865,1.865,0,0,1,.881-.232,2.306,2.306,0,0,1,1,.232q.485.193,1.045.425a6.931,6.931,0,0,0,1.157.464,8.123,8.123,0,0,0,1.448.271,2.6,2.6,0,0,0,1.871-.541,1.807,1.807,0,0,0,.638-1.082Z" transform="translate(65.118 -47.771)" fill="#89ba17"/>
        <path id="path1036" d="M184.854,60.1a3.523,3.523,0,0,0-1.14.232,3.038,3.038,0,0,0-1.2.889,4.726,4.726,0,0,0-.952,1.816,9.2,9.2,0,0,0-.331,3.014,9.76,9.76,0,0,0,.483,3.053,5.5,5.5,0,0,0,1.043,1.816,3.412,3.412,0,0,0,1.241.85,3.622,3.622,0,0,0,1.151.232,6.805,6.805,0,0,0,1.475-.155,10.838,10.838,0,0,0,1.248-.348q.548-.232,1.025-.386a2.809,2.809,0,0,1,.993-.193,1.981,1.981,0,0,1,.968.271,3.656,3.656,0,0,1,.872.889l.078.155-.108.116a8.674,8.674,0,0,1-2.865,2.2,8.273,8.273,0,0,1-3.566.773,7.478,7.478,0,0,1-3.27-.734,9.351,9.351,0,0,1-2.673-1.971,10.023,10.023,0,0,1-1.846-2.9,11.027,11.027,0,0,1-.218-7.227,9.054,9.054,0,0,1,1.589-2.976,7.715,7.715,0,0,1,2.538-1.971,7.579,7.579,0,0,1,3.382-.734,8.276,8.276,0,0,1,3.642.812,8.842,8.842,0,0,1,2.974,2.164l.114.116-.107.155a2.181,2.181,0,0,1-.828.889,3.469,3.469,0,0,1-.917.271,3.519,3.519,0,0,1-1-.155q-.485-.193-1.045-.386a7.513,7.513,0,0,0-1.266-.386A5.6,5.6,0,0,0,184.854,60.1Z" transform="translate(82.743 -47.771)" fill="#eef4f8"/>
        <path id="path1038" d="M189.247,77.788a5.347,5.347,0,0,1-.1,1.816,3.4,3.4,0,0,1-.705,1.353,2.386,2.386,0,0,1-1.719.7,3.867,3.867,0,0,1-2-.271,4.031,4.031,0,0,1-1.466-1,4.787,4.787,0,0,1-.889-1.546,6.676,6.676,0,0,1-.305-1.855l-.471-18.821q-.066-1.159-.12-1.855-.018-.734-.066-1.159-.048-.464-.092-.734a5.5,5.5,0,0,1,3.536,1,4.123,4.123,0,0,1,1.3,3.285l.446,17.816a2.244,2.244,0,0,0,.366,1.353,1.349,1.349,0,0,0,.788.464,1.734,1.734,0,0,0,.885-.077,1.377,1.377,0,0,0,.617-.464Z" transform="translate(94.646 -54.098)" fill="#eef4f8"/>
        <path id="path1040" d="M186.956,60.438q.609-.773,1.293-1.507.575-.657,1.3-1.391.72-.773,1.442-1.469a5.606,5.606,0,0,1,1.671-1.159,5.329,5.329,0,0,1,1.431-.425,3.069,3.069,0,0,1,1.3.116,3.043,3.043,0,0,1-.272,2.435,5.244,5.244,0,0,1-1.914,1.778,10.956,10.956,0,0,1-2.927,1.159,14.638,14.638,0,0,1-3.315.464Zm11.252,16.927a2.857,2.857,0,0,1,.873.928l.114.116-.108.116a8.672,8.672,0,0,1-2.865,2.2,8.358,8.358,0,0,1-3.6.773,7.733,7.733,0,0,1-3.233-.7,9.04,9.04,0,0,1-2.674-2.01,10.021,10.021,0,0,1-1.846-2.9,10.536,10.536,0,0,1-.719-3.633,11.175,11.175,0,0,1,.465-3.594,9.051,9.051,0,0,1,1.589-2.976,7.716,7.716,0,0,1,2.538-1.971,7.816,7.816,0,0,1,3.419-.734,8.352,8.352,0,0,1,2.263.348,7.278,7.278,0,0,1,2.355,1.043,5.89,5.89,0,0,1,1.82,1.855,5.368,5.368,0,0,1,.772,2.783,4.034,4.034,0,0,1-.711,2.589,5.813,5.813,0,0,1-1.809,1.546,8.444,8.444,0,0,1-2.272.773,12.963,12.963,0,0,1-2.065.193,16.529,16.529,0,0,1-2.406-.155q-1-.193-1.374-.271a6.863,6.863,0,0,0,.649,2.28,4.97,4.97,0,0,0,1.032,1.353,3.4,3.4,0,0,0,1.126.7,3.793,3.793,0,0,0,1,.155,6.8,6.8,0,0,0,1.474-.155,10.839,10.839,0,0,0,1.248-.348q.549-.193,1.025-.386a2.81,2.81,0,0,1,.993-.193A1.662,1.662,0,0,1,198.207,77.365Zm-5.969-11.091a4.135,4.135,0,0,0-.955.232,2.915,2.915,0,0,0-1.093.618,4.455,4.455,0,0,0-.928,1.314,6.6,6.6,0,0,0-.574,2.164,13.383,13.383,0,0,0,1.673.386,8.858,8.858,0,0,0,2.181.039,4.107,4.107,0,0,0,1.906-.657,2.086,2.086,0,0,0,.878-1.816,1.96,1.96,0,0,0-.781-1.662A3.143,3.143,0,0,0,192.239,66.274Z" transform="translate(102.065 -53.946)" fill="#eef4f8"/>
        <path id="path1042" d="M198.087,70.418a1.256,1.256,0,0,0-.4-1.082,3.869,3.869,0,0,0-1.241-.85q-.787-.425-1.87-.889a15.649,15.649,0,0,1-2.285-1.237,5.867,5.867,0,0,1-1.51-1.275,5.719,5.719,0,0,1-.854-1.623,5.555,5.555,0,0,1-.266-1.778,5.163,5.163,0,0,1,.361-1.816,4.323,4.323,0,0,1,.925-1.43,4.86,4.86,0,0,1,1.27-.927,5.571,5.571,0,0,1,1.465-.541,6.654,6.654,0,0,1,1.363-.155h.444a8.576,8.576,0,0,1,3.61,1,9.22,9.22,0,0,1,2.831,2.357l.114.116-.107.155a2.63,2.63,0,0,1-.793.812,1.6,1.6,0,0,1-.917.271,2.687,2.687,0,0,1-1-.193q-.486-.232-1.047-.464a12.583,12.583,0,0,0-1.343-.5,3.357,3.357,0,0,0-1.226-.232,1.673,1.673,0,0,0-1.21.387,1.309,1.309,0,0,0-.459.85,1.472,1.472,0,0,0,.475,1.237,5.728,5.728,0,0,0,1.537.889q1.158.5,2.467,1.121a9.182,9.182,0,0,1,2.328,1.469,5.674,5.674,0,0,1,1.568,2.087,4.684,4.684,0,0,1,.184,2.937,6,6,0,0,1-.591,1.469,4.731,4.731,0,0,1-1.223,1.353,6.084,6.084,0,0,1-1.9,1,7.237,7.237,0,0,1-2.613.425,2.44,2.44,0,0,1-.481-.039,8.622,8.622,0,0,1-3.535-.966,8.948,8.948,0,0,1-2.9-2.357l-.114-.116.107-.155a1.99,1.99,0,0,1,.394-.5q.217-.193.4-.348a1.865,1.865,0,0,1,.881-.232,2.3,2.3,0,0,1,1,.232q.485.193,1.046.425a6.924,6.924,0,0,0,1.157.464,8.119,8.119,0,0,0,1.448.271,2.6,2.6,0,0,0,1.872-.541A1.808,1.808,0,0,0,198.087,70.418Z" transform="translate(115.148 -47.771)" fill="#eef4f8"/>
        <path id="path1044" d="M209.943,71.191a2.86,2.86,0,0,1,.873.928l.114.116-.108.116a8.674,8.674,0,0,1-2.865,2.2,8.359,8.359,0,0,1-3.6.773,7.731,7.731,0,0,1-3.233-.7,9.037,9.037,0,0,1-2.674-2.01,10.02,10.02,0,0,1-1.846-2.9,10.534,10.534,0,0,1-.719-3.633,11.173,11.173,0,0,1,.464-3.594,9.057,9.057,0,0,1,1.589-2.976,7.718,7.718,0,0,1,2.538-1.971,7.816,7.816,0,0,1,3.419-.734,8.352,8.352,0,0,1,2.263.348,7.276,7.276,0,0,1,2.354,1.043,5.89,5.89,0,0,1,1.82,1.855,5.369,5.369,0,0,1,.772,2.783,4.035,4.035,0,0,1-.711,2.589,5.817,5.817,0,0,1-1.809,1.546,8.442,8.442,0,0,1-2.272.773,12.946,12.946,0,0,1-2.065.193,16.532,16.532,0,0,1-2.406-.155q-1-.193-1.374-.271a6.867,6.867,0,0,0,.648,2.28,4.973,4.973,0,0,0,1.032,1.353,3.4,3.4,0,0,0,1.126.7,3.8,3.8,0,0,0,1,.155,6.805,6.805,0,0,0,1.474-.155,10.854,10.854,0,0,0,1.248-.348q.55-.193,1.025-.386a2.806,2.806,0,0,1,.993-.193A1.663,1.663,0,0,1,209.943,71.191ZM203.974,60.1a4.136,4.136,0,0,0-.955.232,2.914,2.914,0,0,0-1.093.618A4.453,4.453,0,0,0,201,62.263a6.6,6.6,0,0,0-.574,2.164,13.371,13.371,0,0,0,1.673.386,8.85,8.85,0,0,0,2.181.039,4.1,4.1,0,0,0,1.905-.657,2.086,2.086,0,0,0,.879-1.816,1.961,1.961,0,0,0-.781-1.662,3.143,3.143,0,0,0-2.307-.618Z" transform="translate(132.773 -47.771)" fill="#89ba17"/>
        <path id="path1046" d="M200.889,65.2a10.593,10.593,0,0,1,.6-4.212,6.78,6.78,0,0,1,1.783-2.589,5.912,5.912,0,0,1,2.519-1.237,11.967,11.967,0,0,1,5.728,0,6.261,6.261,0,0,1,2.618,1.237,6.566,6.566,0,0,1,1.95,2.589,10.382,10.382,0,0,1,.844,4.212l.391,9.739a5.435,5.435,0,0,1-3.5-1,4.122,4.122,0,0,1-1.3-3.285l-.1-5.449a8.27,8.27,0,0,0-.4-2.589,3.845,3.845,0,0,0-.852-1.546,2.629,2.629,0,0,0-1.165-.773,4.3,4.3,0,0,0-1.261-.193,4.207,4.207,0,0,0-1.252.193,2.49,2.49,0,0,0-1.089.773,4.269,4.269,0,0,0-.775,1.546A9.075,9.075,0,0,0,205.4,65.2l.15,5.99q.066,1.159.084,1.894.056.734.1,1.159.048.464.091.7a5.5,5.5,0,0,1-3.536-1,4.122,4.122,0,0,1-1.3-3.285Z" transform="translate(145.867 -47.771)" fill="#89ba17"/>
        <path id="path1048" d="M231.614,65.2a8.268,8.268,0,0,0-.4-2.589,3.842,3.842,0,0,0-.852-1.546,2.626,2.626,0,0,0-1.165-.773,4.3,4.3,0,0,0-1.261-.193,4.209,4.209,0,0,0-1.252.193,2.49,2.49,0,0,0-1.089.773,4.268,4.268,0,0,0-.775,1.546,9.09,9.09,0,0,0-.231,2.589l.15,5.99q.029,1.159.085,1.894t.1,1.159q.049.464.091.7a5.5,5.5,0,0,1-3.536-1,4.122,4.122,0,0,1-1.3-3.285l-.1-5.449a8.259,8.259,0,0,0-.4-2.589,3.842,3.842,0,0,0-.852-1.546,2.626,2.626,0,0,0-1.165-.773,4.307,4.307,0,0,0-1.262-.193,4.206,4.206,0,0,0-1.252.193,2.491,2.491,0,0,0-1.089.773,3.9,3.9,0,0,0-.738,1.546A9.065,9.065,0,0,0,213.1,65.2l.15,5.99q.029,1.159.047,1.894.056.734.1,1.159.048.464.091.7a5.5,5.5,0,0,1-3.536-1,4.122,4.122,0,0,1-1.3-3.285l-.1-5.449a10.591,10.591,0,0,1,.6-4.212,6.584,6.584,0,0,1,1.82-2.589,5.911,5.911,0,0,1,2.519-1.237,11.993,11.993,0,0,1,2.837-.348,12.481,12.481,0,0,1,3.077.386,6.42,6.42,0,0,1,2.735,1.469A6.032,6.032,0,0,1,224.8,57.2a12.091,12.091,0,0,1,5.912-.039,6.259,6.259,0,0,1,2.618,1.237,6.569,6.569,0,0,1,1.95,2.589,10.383,10.383,0,0,1,.844,4.212l.15,5.99q.029,1.159.047,1.894.055.734.1,1.159.048.464.091.7a5.5,5.5,0,0,1-3.536-1,4.191,4.191,0,0,1-1.265-3.285Z" transform="translate(165.921 -47.771)" fill="#89ba17"/>
        <path id="path1050" d="M219.075,65.112a6.992,6.992,0,0,1,2.23-.966,9.7,9.7,0,0,1,2.615-.348,11.613,11.613,0,0,1,3.673.58,7.744,7.744,0,0,0-.534-2.126,3.444,3.444,0,0,0-1.485-1.739,2.829,2.829,0,0,0-.82-.271,3.56,3.56,0,0,0-.964-.116h-.407a4.806,4.806,0,0,0-1.03.193,7.717,7.717,0,0,0-1.027.309q-.513.193-1.026.348a4.523,4.523,0,0,1-.995.116,2.306,2.306,0,0,1-1-.232,2.341,2.341,0,0,1-.8-.889l-.078-.155.071-.116a8.413,8.413,0,0,1,5.8-2.86,1.507,1.507,0,0,1,.295-.039h.333a7.348,7.348,0,0,1,3.121.657,7.534,7.534,0,0,1,2.483,1.739,9.7,9.7,0,0,1,2.338,6.3l.008.309a10.116,10.116,0,0,1-1.8,6.531,7.6,7.6,0,0,1-5.247,2.976,2.564,2.564,0,0,1-.443.039h-.48a9.157,9.157,0,0,1-1.63-.155,5.748,5.748,0,0,1-1.675-.5,6.881,6.881,0,0,1-1.575-.889,5.075,5.075,0,0,1-1.22-1.469,5.409,5.409,0,0,1-.807-2.744L217,69.363a4.809,4.809,0,0,1,.528-2.512,4.588,4.588,0,0,1,1.546-1.739Zm7.7,1.855q-.482-.077-1.112-.155a9.436,9.436,0,0,0-1.222-.077,6.231,6.231,0,0,0-1,.077,3.163,3.163,0,0,0-.882.193,2.669,2.669,0,0,0-1.38.966,1.821,1.821,0,0,0-.282.541,2.218,2.218,0,0,0-.132.618,1.221,1.221,0,0,0-.028.348,3.739,3.739,0,0,0,.132.85,2.092,2.092,0,0,0,.464.812,2.417,2.417,0,0,0,.866.657,3.814,3.814,0,0,0,1.559.271,1.873,1.873,0,0,0,.443-.039,3.078,3.078,0,0,0,1.8-.618,2.551,2.551,0,0,0,.615-.541,4.282,4.282,0,0,0,.425-.734,4.953,4.953,0,0,0,.517-1.507,7.615,7.615,0,0,0,.112-1.43h-.074q0-.039-.038-.039-.149-.039-.335-.077t-.446-.116Z" transform="translate(188.033 -47.799)" fill="#89ba17"/>
        <path id="path1052" d="M226.245,58.07a2.309,2.309,0,0,1-2.11,1.353,2.4,2.4,0,0,1-1.115-.271,2.489,2.489,0,0,1-.872-.889,2.731,2.731,0,0,1-.326-1.237,2.552,2.552,0,0,1,.3-1.314,2.3,2.3,0,0,1,.9-1,2.156,2.156,0,0,1,1.21-.386,2.444,2.444,0,0,1,1.989,1.2,2.731,2.731,0,0,1,.326,1.237A2.686,2.686,0,0,1,226.245,58.07Zm3.381,19.941a1.377,1.377,0,0,1-.617.464,1.734,1.734,0,0,1-.885.077,1.348,1.348,0,0,1-.788-.464,2.243,2.243,0,0,1-.367-1.353l-.231-9.236q-.029-1.159-.046-1.855.019-.734.045-1.159.025-.464.056-.734a5.134,5.134,0,0,0-3.449,1,4.053,4.053,0,0,0-1.1,3.324l.191,9.12a6.672,6.672,0,0,0,.3,1.855,4.782,4.782,0,0,0,.889,1.546,4.03,4.03,0,0,0,1.467,1,3.866,3.866,0,0,0,2,.271,2.387,2.387,0,0,0,1.72-.7,3.393,3.393,0,0,0,.706-1.353A5.344,5.344,0,0,0,229.626,78.012Z" transform="translate(200.65 -54.322)" fill="#89ba17"/>
        <path id="path1054" d="M224.48,65.2a10.6,10.6,0,0,1,.6-4.212A6.786,6.786,0,0,1,226.86,58.4a5.91,5.91,0,0,1,2.519-1.237,11.967,11.967,0,0,1,5.728,0,6.261,6.261,0,0,1,2.618,1.237,6.563,6.563,0,0,1,1.949,2.589,10.376,10.376,0,0,1,.844,4.212l.391,9.739a5.435,5.435,0,0,1-3.5-1,4.123,4.123,0,0,1-1.3-3.285l-.1-5.449a8.265,8.265,0,0,0-.4-2.589,3.844,3.844,0,0,0-.852-1.546,2.627,2.627,0,0,0-1.165-.773,4.3,4.3,0,0,0-1.261-.193,4.211,4.211,0,0,0-1.252.193,2.491,2.491,0,0,0-1.089.773,4.275,4.275,0,0,0-.775,1.546,9.078,9.078,0,0,0-.231,2.589l.15,5.99q.066,1.159.084,1.894.055.734.1,1.159.048.464.091.7a5.5,5.5,0,0,1-3.536-1,4.123,4.123,0,0,1-1.3-3.285Z" transform="translate(207.595 -47.771)" fill="#89ba17"/>
      </g>
    </g>
  </g>
</svg>
